<svg width="237" height="235" viewBox="0 0 237 235" fill="none" xmlns="http://www.w3.org/2000/svg">
<path opacity="0.5" d="M113.722 4.3839C114.956 -0.601721 122.044 -0.601719 123.278 4.3839L130.827 34.886C132.015 39.6843 138.211 41.0015 141.248 37.101L160.551 12.3066C163.706 8.25387 170.18 11.1365 169.28 16.1929L163.77 47.1286C162.903 51.9951 168.028 55.7188 172.389 53.3906L200.108 38.591C204.639 36.172 209.381 41.4388 206.502 45.6918L188.886 71.712C186.114 75.8053 189.282 81.2916 194.212 80.9383L225.555 78.6925C230.677 78.3254 232.867 85.0657 228.507 87.7799L201.831 104.385C197.634 106.998 198.297 113.298 202.944 114.981L232.49 125.677C237.32 127.425 236.579 134.474 231.492 135.18L200.367 139.499C195.471 140.179 193.514 146.204 197.075 149.632L219.716 171.421C223.417 174.982 219.873 181.12 214.939 179.695L184.748 170.982C179.999 169.612 175.76 174.32 177.62 178.9L189.441 208.014C191.373 212.772 185.639 216.938 181.711 213.63L157.674 193.391C153.893 190.207 148.106 192.784 147.942 197.724L146.899 229.129C146.729 234.262 139.797 235.736 137.553 231.116L123.827 202.85C121.668 198.403 115.332 198.403 113.173 202.85L99.447 231.116C97.2035 235.736 90.2712 234.262 90.1008 229.129L89.0581 197.724C88.8941 192.784 83.1068 190.207 79.3256 193.391L55.2893 213.63C51.3606 216.938 45.627 212.772 47.5592 208.014L59.3802 178.9C61.2398 174.32 57.0009 169.612 52.2516 170.982L22.0613 179.695C17.1267 181.12 13.5831 174.982 17.2838 171.421L39.9247 149.632C43.4864 146.204 41.5287 140.179 36.6325 139.499L5.50842 135.18C0.421133 134.474 -0.319677 127.425 4.50965 125.677L34.0555 114.981C38.7034 113.298 39.3656 106.998 35.1691 104.385L8.49281 87.7799C4.13252 85.0657 6.32255 78.3254 11.4455 78.6925L42.7876 80.9383C47.718 81.2916 50.8856 75.8053 48.1144 71.712L30.4984 45.6918C27.6191 41.4388 32.3613 36.172 36.892 38.591L64.611 53.3906C68.9715 55.7188 74.0967 51.9951 73.2299 47.1286L67.7203 16.1929C66.8198 11.1365 73.2942 8.25388 76.4493 12.3066L95.7523 37.101C98.7889 41.0015 104.985 39.6843 106.173 34.886L113.722 4.3839Z" stroke="url(#paint0_linear_805_600)"/>
<defs>
<linearGradient id="paint0_linear_805_600" x1="118.5" y1="-17" x2="118.5" y2="254" gradientUnits="userSpaceOnUse">
<stop stop-color="#7A78C9"/>
<stop offset="1" stop-color="#51B4BA"/>
</linearGradient>
</defs>
</svg>
