<svg width="68" height="68" viewBox="0 0 68 68" fill="none" xmlns="http://www.w3.org/2000/svg">
<path d="M26.6305 23.375H28.6524V25.5H26.6305V23.375Z" fill="#7A78C9"/>
<path d="M24.4375 31.875H26.5625V35.0625H24.4375V31.875Z" fill="#7A78C9"/>
<path d="M28.6875 31.875H30.8125V35.0625H28.6875V31.875Z" fill="#7A78C9"/>
<path d="M32.9375 31.875H35.0625V35.0625H32.9375V31.875Z" fill="#7A78C9"/>
<path d="M37.1875 31.875H39.3125V35.0625H37.1875V31.875Z" fill="#7A78C9"/>
<path d="M37.1875 12.75H39.3125V15.9375H37.1875V12.75Z" fill="#7A78C9"/>
<path d="M41.4375 12.75H43.5625V15.9375H41.4375V12.75Z" fill="#7A78C9"/>
<path d="M45.6875 12.75H47.8125V15.9375H45.6875V12.75Z" fill="#7A78C9"/>
<path d="M49.9375 12.75H52.0625V15.9375H49.9375V12.75Z" fill="#7A78C9"/>
<path d="M37.1875 18.0625H39.3125V21.25H37.1875V18.0625Z" fill="#7A78C9"/>
<path d="M41.4375 18.0625H43.5625V21.25H41.4375V18.0625Z" fill="#7A78C9"/>
<path d="M45.6875 18.0625H47.8125V21.25H45.6875V18.0625Z" fill="#7A78C9"/>
<path d="M49.9375 18.0625H52.0625V21.25H49.9375V18.0625Z" fill="#7A78C9"/>
<path d="M49.9375 23.375H52.0625V26.5625H49.9375V23.375Z" fill="#7A78C9"/>
<path d="M49.9375 28.6875H52.0625V31.875H49.9375V28.6875Z" fill="#7A78C9"/>
<path d="M41.4375 31.875H43.5625V35.0625H41.4375V31.875Z" fill="#7A78C9"/>
<path d="M24.4375 37.1875H26.5625V40.375H24.4375V37.1875Z" fill="#7A78C9"/>
<path d="M28.6875 37.1875H30.8125V40.375H28.6875V37.1875Z" fill="#7A78C9"/>
<path d="M32.9375 37.1875H35.0625V40.375H32.9375V37.1875Z" fill="#7A78C9"/>
<path d="M37.1875 37.1875H39.3125V40.375H37.1875V37.1875Z" fill="#7A78C9"/>
<path d="M41.4375 37.1875H43.5625V40.375H41.4375V37.1875Z" fill="#7A78C9"/>
<path d="M24.4375 42.5H26.5625V45.6875H24.4375V42.5Z" fill="#7A78C9"/>
<path d="M28.6875 42.5H30.8125V45.6875H28.6875V42.5Z" fill="#7A78C9"/>
<path d="M32.9375 42.5H35.0625V45.6875H32.9375V42.5Z" fill="#7A78C9"/>
<path d="M37.1875 42.5H39.3125V45.6875H37.1875V42.5Z" fill="#7A78C9"/>
<path d="M41.4375 42.5H43.5625V45.6875H41.4375V42.5Z" fill="#7A78C9"/>
<path d="M24.4375 47.8125H26.5625V51H24.4375V47.8125Z" fill="#7A78C9"/>
<path d="M28.6875 47.8125H30.8125V51H28.6875V47.8125Z" fill="#7A78C9"/>
<path d="M11.6875 26.5625H13.8125V29.75H11.6875V26.5625Z" fill="#7A78C9"/>
<path d="M15.9375 26.5625H18.0625V29.75H15.9375V26.5625Z" fill="#7A78C9"/>
<path d="M11.6875 21.25H13.8125V24.4375H11.6875V21.25Z" fill="#7A78C9"/>
<path d="M15.9375 21.25H18.0625V24.4375H15.9375V21.25Z" fill="#7A78C9"/>
<path d="M11.6875 53.125H13.8125V56.3125H11.6875V53.125Z" fill="#7A78C9"/>
<path d="M15.9375 53.125H18.0625V56.3125H15.9375V53.125Z" fill="#7A78C9"/>
<path d="M11.6875 31.875H13.8125V35.0625H11.6875V31.875Z" fill="#7A78C9"/>
<path d="M15.9375 31.875H18.0625V35.0625H15.9375V31.875Z" fill="#7A78C9"/>
<path d="M11.6875 37.1875H13.8125V40.375H11.6875V37.1875Z" fill="#7A78C9"/>
<path d="M15.9375 37.1875H18.0625V40.375H15.9375V37.1875Z" fill="#7A78C9"/>
<path d="M11.6875 42.5H13.8125V45.6875H11.6875V42.5Z" fill="#7A78C9"/>
<path d="M15.9375 42.5H18.0625V45.6875H15.9375V42.5Z" fill="#7A78C9"/>
<path d="M11.6875 47.8125H13.8125V51H11.6875V47.8125Z" fill="#7A78C9"/>
<path d="M15.9375 47.8125H18.0625V51H15.9375V47.8125Z" fill="#7A78C9"/>
<path d="M32.9375 47.8125H35.0625V51H32.9375V47.8125Z" fill="#7A78C9"/>
<path d="M37.1875 47.8125H39.3125V51H37.1875V47.8125Z" fill="#7A78C9"/>
<path d="M41.4375 47.8125H43.5625V51H41.4375V47.8125Z" fill="#7A78C9"/>
<path d="M49.9375 42.5H52.0625V45.6875H49.9375V42.5Z" fill="#7A78C9"/>
<path d="M54.1875 42.5H56.3125V45.6875H54.1875V42.5Z" fill="#7A78C9"/>
<path d="M49.9375 47.8125H52.0625V51H49.9375V47.8125Z" fill="#7A78C9"/>
<path d="M54.1875 47.8125H56.3125V51H54.1875V47.8125Z" fill="#7A78C9"/>
<path d="M49.9375 53.125H52.0625V56.3125H49.9375V53.125Z" fill="#7A78C9"/>
<path d="M54.1875 53.125H56.3125V56.3125H54.1875V53.125Z" fill="#7A78C9"/>
<path d="M60.5625 37.1875C60.5625 36.9057 60.4506 36.6355 60.2513 36.4362C60.052 36.2369 59.7818 36.125 59.5 36.125H56.3125V7.4375C56.3125 7.15571 56.2006 6.88546 56.0013 6.6862C55.802 6.48694 55.5318 6.375 55.25 6.375H49.9375V4.25H47.8125V6.375H45.6875V2.125H43.5625V6.375H34C33.7182 6.375 33.448 6.48694 33.2487 6.6862C33.0494 6.88546 32.9375 7.15571 32.9375 7.4375V23.375H30.7785V25.5H45.6875V63.75H37.1875V58.4375C37.1875 58.1557 37.0756 57.8855 36.8763 57.6862C36.677 57.4869 36.4068 57.375 36.125 57.375H31.875C31.5932 57.375 31.323 57.4869 31.1237 57.6862C30.9244 57.8855 30.8125 58.1557 30.8125 58.4375V63.75H22.3125V25.5H24.5055V23.375H22.3125V18.0625C22.3125 17.7807 22.2006 17.5105 22.0013 17.3112C21.802 17.1119 21.5318 17 21.25 17H18.0625V12.75H15.9375V17H13.8125V14.875H11.6875V17H8.5C8.21821 17 7.94796 17.1119 7.7487 17.3112C7.54944 17.5105 7.4375 17.7807 7.4375 18.0625V63.75H2.125V65.875H65.875V63.75H60.5625V37.1875ZM13.8125 60.5625V63.75H9.5625V19.125H20.1875V63.75H15.9375V60.5625H13.8125ZM35.0625 23.375V8.5H54.1875V36.125H52.0625V34H49.9375V36.125H47.8125V24.4375C47.8125 24.1557 47.7006 23.8855 47.5013 23.6862C47.302 23.4869 47.0318 23.375 46.75 23.375H35.0625ZM32.9375 63.75V59.5H35.0625V63.75H32.9375ZM54.1875 63.75V60.5625H52.0625V63.75H47.8125V38.25H58.4375V63.75H54.1875Z" fill="#7A78C9"/>
</svg>
