<svg width="34" height="34" viewBox="0 0 34 34" fill="none" xmlns="http://www.w3.org/2000/svg">
<g clip-path="url(#clip0_807_2043)">
<path d="M20.92 17.6605C24.0774 16.1826 26.2694 12.9867 26.2698 9.26991C26.2694 4.15039 22.1199 0.000464844 16.9995 0C11.8801 0.000464844 7.73015 4.14999 7.72975 9.26985C7.73022 12.9866 9.92229 16.1825 13.0792 17.6605C6.0603 19.412 0.859229 25.7567 0.858765 33.3195C0.858765 33.4987 0.93128 33.6738 1.05792 33.8008C1.18449 33.9279 1.36 34 1.53923 34H32.4608C32.6399 34 32.815 33.9274 32.9421 33.8008C33.0691 33.6743 33.1412 33.4988 33.1412 33.3195C33.1408 25.7567 27.9397 19.412 20.92 17.6605ZM11.4075 14.8619C9.97535 13.4284 9.09161 11.4555 9.09115 9.26932C9.09161 7.08369 9.97535 5.11076 11.4075 3.67725C12.8406 2.24513 14.8139 1.36139 16.9995 1.36093C19.1852 1.36139 21.1586 2.24513 22.5921 3.67725C24.0243 5.11076 24.908 7.08369 24.9085 9.26932C24.908 11.4555 24.0243 13.4283 22.5921 14.8619C21.1586 16.294 19.1852 17.1778 16.9995 17.1782C14.8138 17.1778 12.8404 16.2941 11.4075 14.8619ZM19.9755 18.8391L18.0339 21.7515H16.0764L14.4192 18.7683C15.2576 18.6204 16.119 18.5393 17 18.5393C18.0193 18.5392 19.0142 18.6427 19.9755 18.8391ZM2.23696 32.6391C2.40975 28.8271 4.02296 25.3953 6.54885 22.868C8.32442 21.0924 10.5482 19.7718 13.0355 19.081L14.9581 22.5409L12.8536 32.6391H2.23696ZM14.2441 32.639L16.2292 23.1124H17.8665L20.2477 32.639H14.2441ZM21.6508 32.639L19.1308 22.5589L21.3718 19.1969C23.6945 19.915 25.7722 21.1903 27.4507 22.8679C29.9766 25.3951 31.5898 28.8265 31.7626 32.6389H21.6508V32.639Z" fill="#14141B"/>
</g>
<defs>
<clipPath id="clip0_807_2043">
<rect width="34" height="34" fill="white"/>
</clipPath>
</defs>
</svg>
