<svg width="56" height="56" viewBox="0 0 56 56" fill="none" xmlns="http://www.w3.org/2000/svg">
<g clip-path="url(#clip0_805_453)">
<mask id="mask0_805_453" style="mask-type:luminance" maskUnits="userSpaceOnUse" x="0" y="0" width="56" height="56">
<path d="M0 7.62939e-06H56V56H0V7.62939e-06Z" fill="white"/>
</mask>
<g mask="url(#mask0_805_453)">
<path d="M42.0001 54.6328H3.00914C1.80032 54.6328 0.820435 53.6529 0.820435 52.4441V7.80784C0.820435 6.59903 1.80032 5.61914 3.00914 5.61914H6.61731" stroke="#8CD3D6" stroke-width="1.64062" stroke-miterlimit="10" stroke-linecap="round" stroke-linejoin="round"/>
<path d="M49.4922 5.61914H52.991C54.1998 5.61914 55.1797 6.59903 55.1797 7.80784V52.4441C55.1797 53.6529 54.1998 54.6328 52.991 54.6328H46.9219" stroke="#8CD3D6" stroke-width="1.64062" stroke-miterlimit="10" stroke-linecap="round" stroke-linejoin="round"/>
<path d="M40.6875 5.61914H44.7891" stroke="#8CD3D6" stroke-width="1.64062" stroke-miterlimit="10" stroke-linecap="round" stroke-linejoin="round"/>
<path d="M19.8516 5.61914H36.0938" stroke="#8CD3D6" stroke-width="1.64062" stroke-miterlimit="10" stroke-linecap="round" stroke-linejoin="round"/>
<path d="M11.3203 5.61914H15.1484" stroke="#8CD3D6" stroke-width="1.64062" stroke-miterlimit="10" stroke-linecap="round" stroke-linejoin="round"/>
<path d="M6.37602 15.8694H0.820312" stroke="#8CD3D6" stroke-width="1.64062" stroke-miterlimit="10" stroke-linecap="round" stroke-linejoin="round"/>
<path d="M55.1796 15.8694H11.3303" stroke="#8CD3D6" stroke-width="1.64062" stroke-miterlimit="10" stroke-linecap="round" stroke-linejoin="round"/>
<path d="M8.85949 9.93579C7.6393 9.93579 6.65012 8.9466 6.65012 7.72642V3.5764C6.65012 2.35632 7.6393 1.36713 8.85949 1.36713C10.0797 1.36713 11.0689 2.35632 11.0689 3.5764V7.72642C11.0689 8.9466 10.0797 9.93579 8.85949 9.93579Z" stroke="#8CD3D6" stroke-width="1.64062" stroke-miterlimit="10" stroke-linecap="round" stroke-linejoin="round"/>
<path d="M17.5763 9.93579C16.3561 9.93579 15.3669 8.9466 15.3669 7.72642V3.5764C15.3669 2.35632 16.3561 1.36713 17.5763 1.36713C18.7965 1.36713 19.7857 2.35632 19.7857 3.5764V7.72642C19.7857 8.9466 18.7965 9.93579 17.5763 9.93579Z" stroke="#8CD3D6" stroke-width="1.64062" stroke-miterlimit="10" stroke-linecap="round" stroke-linejoin="round"/>
<path d="M38.4238 9.93579C37.2036 9.93579 36.2144 8.9466 36.2144 7.72642V3.5764C36.2144 2.35632 37.2036 1.36713 38.4238 1.36713C39.6439 1.36713 40.6331 2.35632 40.6331 3.5764V7.72642C40.6331 8.9466 39.6439 9.93579 38.4238 9.93579Z" stroke="#8CD3D6" stroke-width="1.64062" stroke-miterlimit="10" stroke-linecap="round" stroke-linejoin="round"/>
<path d="M47.1405 9.93579C45.9203 9.93579 44.9312 8.9466 44.9312 7.72642V3.5764C44.9312 2.35632 45.9203 1.36713 47.1405 1.36713C48.3607 1.36713 49.3499 2.35632 49.3499 3.5764V7.72642C49.3499 8.9466 48.3607 9.93579 47.1405 9.93579Z" stroke="#8CD3D6" stroke-width="1.64062" stroke-miterlimit="10" stroke-linecap="round" stroke-linejoin="round"/>
<path d="M15.694 25.6169C14.4894 25.6169 13.5128 24.6403 13.5128 23.4357C13.5128 22.231 14.4894 21.2544 15.694 21.2544C16.8987 21.2544 17.8753 22.231 17.8753 23.4357C17.8753 24.6403 16.8987 25.6169 15.694 25.6169Z" stroke="#8CD3D6" stroke-width="1.64062" stroke-miterlimit="10" stroke-linecap="round" stroke-linejoin="round"/>
<path d="M23.8012 25.6169C22.5965 25.6169 21.6199 24.6403 21.6199 23.4357C21.6199 22.231 22.5965 21.2544 23.8012 21.2544C25.0059 21.2544 25.9824 22.231 25.9824 23.4357C25.9824 24.6403 25.0059 25.6169 23.8012 25.6169Z" stroke="#8CD3D6" stroke-width="1.64062" stroke-miterlimit="10" stroke-linecap="round" stroke-linejoin="round"/>
<path d="M40.0155 25.6169C38.8108 25.6169 37.8343 24.6403 37.8343 23.4357C37.8343 22.231 38.8108 21.2544 40.0155 21.2544C41.2202 21.2544 42.1967 22.231 42.1967 23.4357C42.1967 24.6403 41.2202 25.6169 40.0155 25.6169Z" stroke="#8CD3D6" stroke-width="1.64062" stroke-miterlimit="10" stroke-linecap="round" stroke-linejoin="round"/>
<path d="M48.1227 25.6169C46.9181 25.6169 45.9416 24.6403 45.9416 23.4357C45.9416 22.231 46.9181 21.2544 48.1227 21.2544C49.3275 21.2544 50.304 22.231 50.304 23.4357C50.304 24.6403 49.3275 25.6169 48.1227 25.6169Z" stroke="#8CD3D6" stroke-width="1.64062" stroke-miterlimit="10" stroke-linecap="round" stroke-linejoin="round"/>
<path d="M7.58684 33.3665C6.38219 33.3665 5.40558 32.3898 5.40558 31.1852C5.40558 29.9805 6.38219 29.0039 7.58684 29.0039C8.7915 29.0039 9.76811 29.9805 9.76811 31.1852C9.76811 32.3898 8.7915 33.3665 7.58684 33.3665Z" stroke="#8CD3D6" stroke-width="1.64062" stroke-miterlimit="10" stroke-linecap="round" stroke-linejoin="round"/>
<path d="M15.694 33.3665C14.4894 33.3665 13.5128 32.3898 13.5128 31.1852C13.5128 29.9805 14.4894 29.0039 15.694 29.0039C16.8987 29.0039 17.8753 29.9805 17.8753 31.1852C17.8753 32.3898 16.8987 33.3665 15.694 33.3665Z" stroke="#8CD3D6" stroke-width="1.64062" stroke-miterlimit="10" stroke-linecap="round" stroke-linejoin="round"/>
<path d="M23.8012 33.3665C22.5965 33.3665 21.6199 32.3898 21.6199 31.1852C21.6199 29.9805 22.5965 29.0039 23.8012 29.0039C25.0059 29.0039 25.9824 29.9805 25.9824 31.1852C25.9824 32.3898 25.0059 33.3665 23.8012 33.3665Z" stroke="#8CD3D6" stroke-width="1.64062" stroke-miterlimit="10" stroke-linecap="round" stroke-linejoin="round"/>
<path d="M40.0155 33.3665C38.8108 33.3665 37.8343 32.3898 37.8343 31.1852C37.8343 29.9805 38.8108 29.0039 40.0155 29.0039C41.2202 29.0039 42.1967 29.9805 42.1967 31.1852C42.1967 32.3898 41.2202 33.3665 40.0155 33.3665Z" stroke="#8CD3D6" stroke-width="1.64062" stroke-miterlimit="10" stroke-linecap="round" stroke-linejoin="round"/>
<path d="M48.1227 33.3665C46.9181 33.3665 45.9416 32.3898 45.9416 31.1852C45.9416 29.9805 46.9181 29.0039 48.1227 29.0039C49.3275 29.0039 50.304 29.9805 50.304 31.1852C50.304 32.3898 49.3275 33.3665 48.1227 33.3665Z" stroke="#8CD3D6" stroke-width="1.64062" stroke-miterlimit="10" stroke-linecap="round" stroke-linejoin="round"/>
<path d="M7.58684 41.116C6.38219 41.116 5.40558 40.1394 5.40558 38.9347C5.40558 37.73 6.38219 36.7534 7.58684 36.7534C8.7915 36.7534 9.76811 37.73 9.76811 38.9347C9.76811 40.1394 8.7915 41.116 7.58684 41.116Z" stroke="#8CD3D6" stroke-width="1.64062" stroke-miterlimit="10" stroke-linecap="round" stroke-linejoin="round"/>
<path d="M15.694 41.116C14.4894 41.116 13.5128 40.1394 13.5128 38.9347C13.5128 37.73 14.4894 36.7534 15.694 36.7534C16.8987 36.7534 17.8753 37.73 17.8753 38.9347C17.8753 40.1394 16.8987 41.116 15.694 41.116Z" stroke="#8CD3D6" stroke-width="1.64062" stroke-miterlimit="10" stroke-linecap="round" stroke-linejoin="round"/>
<path d="M23.8012 41.116C22.5965 41.116 21.6199 40.1394 21.6199 38.9347C21.6199 37.73 22.5965 36.7534 23.8012 36.7534C25.0059 36.7534 25.9824 37.73 25.9824 38.9347C25.9824 40.1394 25.0059 41.116 23.8012 41.116Z" stroke="#8CD3D6" stroke-width="1.64062" stroke-miterlimit="10" stroke-linecap="round" stroke-linejoin="round"/>
<path d="M40.0155 41.116C38.8108 41.116 37.8343 40.1394 37.8343 38.9347C37.8343 37.73 38.8108 36.7534 40.0155 36.7534C41.2202 36.7534 42.1967 37.73 42.1967 38.9347C42.1967 40.1394 41.2202 41.116 40.0155 41.116Z" stroke="#8CD3D6" stroke-width="1.64062" stroke-miterlimit="10" stroke-linecap="round" stroke-linejoin="round"/>
<path d="M31.9084 25.6169C30.7037 25.6169 29.7272 24.6403 29.7272 23.4357C29.7272 22.231 30.7037 21.2544 31.9084 21.2544C33.113 21.2544 34.0895 22.231 34.0895 23.4357C34.0895 24.6403 33.113 25.6169 31.9084 25.6169Z" stroke="#8CD3D6" stroke-width="1.64062" stroke-miterlimit="10" stroke-linecap="round" stroke-linejoin="round"/>
<path d="M31.9084 33.3665C30.7037 33.3665 29.7272 32.3898 29.7272 31.1852C29.7272 29.9805 30.7037 29.0039 31.9084 29.0039C33.113 29.0039 34.0895 29.9805 34.0895 31.1852C34.0895 32.3898 33.113 33.3665 31.9084 33.3665Z" stroke="#8CD3D6" stroke-width="1.64062" stroke-miterlimit="10" stroke-linecap="round" stroke-linejoin="round"/>
<path d="M31.9084 41.116C30.7037 41.116 29.7272 40.1394 29.7272 38.9347C29.7272 37.73 30.7037 36.7534 31.9084 36.7534C33.113 36.7534 34.0895 37.73 34.0895 38.9347C34.0895 40.1394 33.113 41.116 31.9084 41.116Z" stroke="#8CD3D6" stroke-width="1.64062" stroke-miterlimit="10" stroke-linecap="round" stroke-linejoin="round"/>
<path d="M48.1227 41.116C46.9181 41.116 45.9416 40.1394 45.9416 38.9347C45.9416 37.73 46.9181 36.7534 48.1227 36.7534C49.3275 36.7534 50.304 37.73 50.304 38.9347C50.304 40.1394 49.3275 41.116 48.1227 41.116Z" stroke="#8CD3D6" stroke-width="1.64062" stroke-miterlimit="10" stroke-linecap="round" stroke-linejoin="round"/>
<path d="M7.58684 48.865C6.38219 48.865 5.40558 47.8884 5.40558 46.6837C5.40558 45.4791 6.38219 44.5025 7.58684 44.5025C8.7915 44.5025 9.76811 45.4791 9.76811 46.6837C9.76811 47.8884 8.7915 48.865 7.58684 48.865Z" stroke="#8CD3D6" stroke-width="1.64062" stroke-miterlimit="10" stroke-linecap="round" stroke-linejoin="round"/>
<path d="M15.694 48.865C14.4894 48.865 13.5128 47.8884 13.5128 46.6837C13.5128 45.4791 14.4894 44.5025 15.694 44.5025C16.8987 44.5025 17.8753 45.4791 17.8753 46.6837C17.8753 47.8884 16.8987 48.865 15.694 48.865Z" stroke="#8CD3D6" stroke-width="1.64062" stroke-miterlimit="10" stroke-linecap="round" stroke-linejoin="round"/>
<path d="M23.8012 48.865C22.5965 48.865 21.6199 47.8884 21.6199 46.6837C21.6199 45.4791 22.5965 44.5025 23.8012 44.5025C25.0059 44.5025 25.9824 45.4791 25.9824 46.6837C25.9824 47.8884 25.0059 48.865 23.8012 48.865Z" stroke="#8CD3D6" stroke-width="1.64062" stroke-miterlimit="10" stroke-linecap="round" stroke-linejoin="round"/>
</g>
</g>
<defs>
<clipPath id="clip0_805_453">
<rect width="56" height="56" fill="white"/>
</clipPath>
</defs>
</svg>
