<svg width="68" height="68" viewBox="0 0 68 68" fill="none" xmlns="http://www.w3.org/2000/svg">
<path d="M65.1362 46.765C63.8019 44.3733 61.0377 43.2429 58.4053 44.0128L41.8826 48.8677C41.3794 46.0968 39.382 43.8177 36.6002 42.9814L25.8237 39.7405C25.6121 39.6767 25.3848 39.6798 25.1763 39.7519L15.1448 43.1587V40.7578C15.1448 40.1711 14.6695 39.6953 14.0823 39.6953H3.1875C2.60022 39.6953 2.125 40.1711 2.125 40.7578V61.3619C2.125 61.9487 2.60022 62.4244 3.1875 62.4244H14.0823C14.6696 62.4244 15.1448 61.9487 15.1448 61.3619V59.7527C20.2855 61.3913 36.5623 65.6411 37.3317 65.8418C37.5642 65.9024 37.8121 65.8819 38.0321 65.7842L46.1949 62.149C46.7303 61.9103 46.9721 61.282 46.7324 60.7461C46.4958 60.2102 45.8701 59.9705 45.3295 60.2076L37.5071 63.6913C31.8069 62.2019 18.2837 58.6087 15.1448 57.5193V45.4025L25.5374 41.8733L35.9881 45.0161C38.1887 45.6776 39.6898 47.5978 39.8496 49.8586C39.0162 50.6523 36.1945 52.7996 30.8623 51.7434C30.2885 51.6256 29.7272 52.0033 29.6141 52.5787C29.4989 53.1545 29.8735 53.7138 30.4494 53.8279C31.6073 54.0578 32.6719 54.1558 33.6431 54.1558C38.2415 54.1558 40.7694 51.968 41.5253 51.1875L59.004 46.0517C60.6787 45.5645 62.4323 46.2805 63.281 47.8C63.7926 48.7188 63.8911 49.7746 63.5591 50.7722C63.226 51.7699 62.5142 52.5553 61.5534 52.9828L49.0473 58.5521C48.5118 58.7908 48.2701 59.419 48.5098 59.955C48.7478 60.4969 49.3885 60.7303 49.9126 60.4935L62.4188 54.9242C63.9088 54.2601 65.0595 52.9922 65.5751 51.4441C66.0908 49.896 65.931 48.1907 65.1362 46.765ZM13.0198 60.2994H4.25V41.8203H13.0198V60.2994Z" fill="#7A78C9"/>
<path d="M7.61597 46.0293H9.65381C10.2411 46.0293 10.7163 45.5536 10.7163 44.9668C10.7163 44.38 10.2411 43.9043 9.65381 43.9043H7.61597C7.02869 43.9043 6.55347 44.38 6.55347 44.9668C6.55347 45.5536 7.02869 46.0293 7.61597 46.0293Z" fill="#7A78C9"/>
<path d="M57.0492 19.1261C57.0492 23.7076 55.5759 28.0706 52.8902 31.7029L52.9538 30.8561C52.9984 30.2709 52.5595 29.7609 51.9743 29.7168C51.3912 29.6655 50.8786 30.1111 50.835 30.6963L50.53 34.7523C50.4853 35.3375 50.9242 35.8475 51.5094 35.8916L55.5654 36.1966C56.1431 36.2429 56.6632 35.8033 56.7047 35.2171C56.7493 34.6319 56.3104 34.122 55.7252 34.0779L53.8591 33.9373C57.2946 29.7632 59.1742 24.5802 59.1742 19.1261C59.1742 12.7967 56.6767 6.86635 52.1403 2.42698C51.7211 2.01661 51.0487 2.02543 50.6379 2.44359C50.228 2.86277 50.2353 3.53566 50.6545 3.94602C54.7779 7.98176 57.0492 13.3731 57.0492 19.1261Z" fill="#7A78C9"/>
<path d="M19.8617 20.1885C20.449 20.1885 20.9242 19.7127 20.9242 19.126C20.9242 10.9238 27.597 4.25098 35.7992 4.25098C44.0014 4.25098 50.6742 10.9238 50.6742 19.126C50.6742 27.3282 44.0014 34.001 35.7992 34.001C29.0351 34.001 23.1166 29.4366 21.4077 22.9013C21.2583 22.3327 20.6793 21.9929 20.1107 22.1423C19.5432 22.2906 19.2028 22.8712 19.3512 23.4387C21.305 30.9089 28.0691 36.126 35.7992 36.126C45.1729 36.126 52.7992 28.4996 52.7992 19.126C52.7992 9.7523 45.1729 2.12598 35.7992 2.12598C26.4255 2.12598 18.7992 9.75231 18.7992 19.126C18.7992 19.7127 19.2744 20.1885 19.8617 20.1885Z" fill="#7A78C9"/>
<path d="M35.7991 26.3824C34.0912 26.3824 32.7019 24.9931 32.7019 23.2857C32.7019 22.6989 32.2267 22.2232 31.6394 22.2232C31.0521 22.2232 30.5769 22.6989 30.5769 23.2857C30.5769 25.8009 32.3651 27.9053 34.7366 28.3976V29.751C34.7366 30.3377 35.2119 30.8135 35.7991 30.8135C36.3864 30.8135 36.8616 30.3377 36.8616 29.751V28.3976C39.2331 27.9053 41.0214 25.8009 41.0214 23.2857C41.0214 20.4064 38.6785 18.0635 35.7991 18.0635C34.0912 18.0635 32.7019 16.6741 32.7019 14.9668C32.7019 13.2594 34.0912 11.8701 35.7991 11.8701C37.507 11.8701 38.8964 13.2594 38.8964 14.9668C38.8964 15.5535 39.3716 16.0293 39.9589 16.0293C40.5461 16.0293 41.0214 15.5535 41.0214 14.9668C41.0214 12.4516 39.2331 10.3472 36.8616 9.85491V8.50098C36.8616 7.91421 36.3864 7.43848 35.7991 7.43848C35.2119 7.43848 34.7366 7.91421 34.7366 8.50098V9.85491C32.3651 10.3472 30.5769 12.4516 30.5769 14.9668C30.5769 17.8461 32.9198 20.1885 35.7991 20.1885C37.507 20.1885 38.8964 21.5778 38.8964 23.2857C38.8964 24.9931 37.507 26.3824 35.7991 26.3824Z" fill="#7A78C9"/>
</svg>
