<svg width="215" height="117" viewBox="0 0 215 117" fill="none" xmlns="http://www.w3.org/2000/svg">
<path d="M214.363 102.628C214.709 101.875 214.379 100.985 213.627 100.638L201.363 94.9953C200.61 94.649 199.719 94.9784 199.373 95.7309C199.027 96.4835 199.356 97.3743 200.109 97.7206L211.01 102.737L205.994 113.638C205.648 114.391 205.977 115.281 206.73 115.628C207.482 115.974 208.373 115.645 208.719 114.892L214.363 102.628ZM0.976472 1.26732C6.82881 33.7029 29.9766 70.3085 66.6353 93.2716C103.356 116.274 153.593 125.565 213.52 103.408L212.48 100.594C153.406 122.436 104.144 113.227 68.2278 90.7292C32.2497 68.1924 9.62383 32.2984 3.9288 0.734633L0.976472 1.26732Z" fill="url(#paint0_linear_805_559)"/>
<defs>
<linearGradient id="paint0_linear_805_559" x1="137.369" y1="80.1571" x2="-13.1106" y2="22.9756" gradientUnits="userSpaceOnUse">
<stop stop-color="#7A78C9"/>
<stop offset="1" stop-color="#7A78C9" stop-opacity="0"/>
</linearGradient>
</defs>
</svg>
