<svg width="46" height="46" viewBox="0 0 46 46" fill="none" xmlns="http://www.w3.org/2000/svg">
<g clip-path="url(#clip0_805_601)">
<path d="M12.9266 7.02606C13.6942 5.97067 15.364 6.51359 15.364 7.81866C15.364 8.94432 15.7072 9.87555 16.4131 10.6653C16.8778 11.1852 17.5479 11.4509 18.2512 11.3953C18.9573 11.339 19.5796 10.9684 19.9583 10.3784C21.0987 8.60183 21.3635 5.71102 20.7677 1.54092C20.6114 0.446444 21.7671 -0.360262 22.7407 0.163886H22.7408C28.3276 3.17221 32.9749 7.67015 36.1801 13.1714C38.9776 17.9727 40.5182 23.2524 40.5182 28.0378V28.1042C40.5858 37.7126 32.9433 45.7378 23.4819 45.9933C23.3193 45.9978 23.1566 45.9999 22.9947 45.9999C18.4092 45.9999 14.091 44.2461 10.7876 41.0308C7.3658 37.7001 5.48132 33.2434 5.48132 28.4814C5.48132 22.6635 7.50532 17.1415 9.20337 13.5334C11.0336 9.64465 12.8501 7.13118 12.9266 7.02606Z" fill="url(#paint0_linear_805_601)"/>
<path d="M23.0001 16.3516C16.3122 16.3516 10.8712 21.7926 10.8712 28.4805C10.8712 35.1683 16.3122 40.6094 23.0001 40.6094C29.6881 40.6094 35.129 35.1683 35.129 28.4805C35.129 21.7926 29.6881 16.3516 23.0001 16.3516ZM21.6422 23.0898C21.6422 22.3456 22.2456 21.7422 22.9899 21.7422C23.7342 21.7422 24.3375 22.3456 24.3375 23.0898V29.3789C24.3375 30.1232 23.7341 30.7266 22.9899 30.7266C22.2456 30.7266 21.6422 30.1232 21.6422 29.3789V23.0898ZM22.9999 35.2188C22.2557 35.2188 21.6523 34.6154 21.6523 33.8711C21.6523 33.1268 22.2557 32.5234 22.9999 32.5234C23.7442 32.5234 24.3476 33.1268 24.3476 33.8711C24.3476 34.6154 23.7442 35.2188 22.9999 35.2188Z" fill="url(#paint1_linear_805_601)"/>
</g>
<defs>
<linearGradient id="paint0_linear_805_601" x1="23" y1="46" x2="23" y2="1.09673e-05" gradientUnits="userSpaceOnUse">
<stop stop-color="#FD5900"/>
<stop offset="1" stop-color="#FFDE00"/>
</linearGradient>
<linearGradient id="paint1_linear_805_601" x1="23.0001" y1="40.6094" x2="23.0001" y2="16.3516" gradientUnits="userSpaceOnUse">
<stop stop-color="#FFEDAD"/>
<stop offset="1" stop-color="#FFFFE5"/>
</linearGradient>
<clipPath id="clip0_805_601">
<rect width="46" height="46" fill="white"/>
</clipPath>
</defs>
</svg>
