<svg width="188" height="19" viewBox="0 0 188 19" fill="none" xmlns="http://www.w3.org/2000/svg">
<path d="M0.456095 0.319774C0.162891 0.319774 0 0.488218 0 0.791419V18.2086C0 18.5118 0.162891 18.6802 0.456095 18.6802H3.32298C3.61618 18.6802 3.77907 18.5118 3.77907 18.2086V13.7953H8.34002C8.47033 13.7953 8.63323 13.7953 8.86127 13.7616L11.044 18.3433C11.1743 18.5792 11.3698 18.6802 11.6304 18.6802H14.8231C15.0837 18.6802 15.2466 18.4444 15.1163 18.2086L12.3146 12.6499C14.1715 11.5382 15.4421 9.44946 15.4421 7.02386C15.4421 3.21702 12.4123 0.319774 8.47033 0.319774H0.456095ZM3.77907 10.0896V4.02555H8.47033C10.5228 4.02555 11.663 5.30573 11.663 7.02386C11.663 8.742 10.5228 10.0896 8.47033 10.0896H3.77907Z" fill="#1C325F"/>
<path d="M19.1555 0.319774C18.8623 0.319774 18.6994 0.488218 18.6994 0.791419V18.2086C18.6994 18.5118 18.8623 18.6802 19.1555 18.6802H22.0224C22.3156 18.6802 22.4785 18.5118 22.4785 18.2086V0.791419C22.4785 0.488218 22.3156 0.319774 22.0224 0.319774H19.1555Z" fill="#1C325F"/>
<path d="M29.8192 3.95817H35.2598C36.4 3.95817 37.0842 4.63195 37.0842 5.71C37.0842 6.75435 36.3023 7.46182 35.2598 7.46182H29.8192V3.95817ZM38.9411 8.60724C40.1465 7.96715 40.8307 6.78804 40.8307 5.33942C40.8307 2.50955 38.5502 0.319774 35.2272 0.319774H26.5288C26.2356 0.319774 26.0727 0.488218 26.0727 0.791419V18.2086C26.0727 18.5118 26.2356 18.6802 26.5288 18.6802H35.9114C39.5601 18.6802 42.0035 16.4231 42.0035 13.0879C42.0035 11.1002 40.8958 9.55053 38.9411 8.84306V8.60724ZM29.8192 11.1002H35.8136C37.41 11.1002 38.2244 11.7403 38.2244 13.0542C38.2244 14.2333 37.3448 15.0081 35.8136 15.0081H29.8192V11.1002Z" fill="#1C325F"/>
<path d="M58.9877 18.2086C59.118 18.5118 59.346 18.6802 59.6718 18.6802H62.7668C63.06 18.6802 63.2228 18.4107 63.1251 18.1412L55.795 0.589286C55.7299 0.42084 55.5995 0.319774 55.3715 0.319774H51.6576C51.4295 0.319774 51.2992 0.42084 51.2341 0.589286L43.5456 18.2086C43.4479 18.5118 43.5456 18.6802 43.8714 18.6802H47.0966C47.3573 18.6802 47.5527 18.5455 47.6505 18.276L48.8884 15.0418H57.7497L58.9877 18.2086ZM53.2213 3.95817H53.5797L56.4466 11.5045H50.2567L53.2213 3.95817Z" fill="#1C325F"/>
<path d="M72.8604 0.0502625C68.5927 0.0502625 65.4977 2.17266 65.4977 5.50786C65.4977 9.31471 68.3972 10.6623 72.7627 11.0328C76.0531 11.336 77.291 11.9088 77.291 13.2226C77.291 14.4691 76.0531 15.3113 73.3165 15.3113C70.7428 15.3113 69.0487 14.6712 67.2569 13.2226C67.0289 13.0205 66.8008 13.0542 66.6054 13.3237L65.0742 15.4461C64.8787 15.7156 64.8787 15.9514 65.1068 16.1199C67.4524 18.1412 69.9935 18.9497 73.2513 18.9497C77.7145 18.9497 81.0375 16.8273 81.0375 13.1552C81.0375 9.31471 77.7471 7.73133 73.1862 7.29337C70.2216 6.99018 69.2442 6.45115 69.2442 5.37311C69.2442 4.32875 70.4496 3.68866 72.6649 3.68866C74.9128 3.68866 76.8024 4.36244 78.2684 5.57524C78.529 5.81106 78.757 5.77737 78.9525 5.54155L80.5814 3.45284C80.7443 3.21702 80.7117 3.01488 80.4837 2.84644C78.3987 1.06093 75.7273 0.0502625 72.8604 0.0502625Z" fill="#1C325F"/>
<path d="M90.3827 0.319774C90.0895 0.319774 89.9266 0.488218 89.9266 0.791419V18.2086C89.9266 18.5118 90.0895 18.6802 90.3827 18.6802H93.2496C93.5428 18.6802 93.7057 18.5118 93.7057 18.2086V0.791419C93.7057 0.488218 93.5428 0.319774 93.2496 0.319774H90.3827Z" fill="#8CD3D6"/>
<path d="M113.035 18.6802C113.328 18.6802 113.491 18.5118 113.491 18.2086V0.791419C113.491 0.488218 113.328 0.319774 113.035 0.319774H110.266C109.973 0.319774 109.81 0.488218 109.81 0.791419V7.226L110.038 12.9194L109.875 12.9531L105.77 6.95649L100.884 0.555595C100.721 0.387151 100.525 0.319774 100.265 0.319774H97.7561C97.4629 0.319774 97.3 0.488218 97.3 0.791419V18.2086C97.3 18.5118 97.4629 18.6802 97.7561 18.6802H100.525C100.818 18.6802 100.981 18.5118 100.981 18.2086V11.7403L100.753 6.08057L100.916 6.04689L105.412 12.6162L109.875 18.4444C109.973 18.6128 110.136 18.6802 110.364 18.6802H113.035Z" fill="#8CD3D6"/>
<path d="M127.058 18.6802C127.286 18.6802 127.449 18.5792 127.546 18.3433L135.104 0.791419C135.202 0.488218 135.104 0.319774 134.811 0.319774H131.521C131.228 0.319774 131 0.45453 130.902 0.75773L128.491 6.88911L125.722 14.5028H125.526L122.725 6.9228L120.184 0.791419C120.053 0.488218 119.793 0.319774 119.402 0.319774H116.372C116.014 0.319774 115.883 0.555595 116.014 0.858795L123.441 18.3433C123.539 18.5792 123.735 18.6802 123.963 18.6802H127.058Z" fill="#8CD3D6"/>
<path d="M138.05 0.319774C137.822 0.319774 137.594 0.521907 137.594 0.791419V18.2086C137.594 18.5118 137.757 18.6802 138.05 18.6802H151.505C151.798 18.6802 151.961 18.5118 151.961 18.2086V15.4798C151.961 15.1766 151.798 15.0081 151.505 15.0081H141.373V11.0328H150.039C150.332 11.0328 150.495 10.8644 150.495 10.5612V7.86609C150.495 7.56289 150.332 7.39444 150.039 7.39444H141.373V3.95817H151.244C151.537 3.95817 151.7 3.78973 151.7 3.48653V0.791419C151.7 0.488218 151.537 0.319774 151.244 0.319774H138.05Z" fill="#8CD3D6"/>
<path d="M162.151 0.0502625C157.883 0.0502625 154.788 2.17266 154.788 5.50786C154.788 9.31471 157.688 10.6623 162.053 11.0328C165.343 11.336 166.581 11.9088 166.581 13.2226C166.581 14.4691 165.343 15.3113 162.607 15.3113C160.033 15.3113 158.339 14.6712 156.547 13.2226C156.319 13.0205 156.091 13.0542 155.896 13.3237L154.365 15.4461C154.169 15.7156 154.169 15.9514 154.397 16.1199C156.743 18.1412 159.284 18.9497 162.542 18.9497C167.005 18.9497 170.328 16.8273 170.328 13.1552C170.328 9.31471 167.037 7.73133 162.477 7.29337C159.512 6.99018 158.535 6.45115 158.535 5.37311C158.535 4.32875 159.74 3.68866 161.955 3.68866C164.203 3.68866 166.093 4.36244 167.559 5.57524C167.819 5.81106 168.047 5.77737 168.243 5.54155L169.872 3.45284C170.035 3.21702 170.002 3.01488 169.774 2.84644C167.689 1.06093 165.018 0.0502625 162.151 0.0502625Z" fill="#8CD3D6"/>
<path d="M172.428 0.319774C172.134 0.319774 171.972 0.488218 171.972 0.791419V3.55391C171.972 3.85711 172.134 4.02555 172.428 4.02555H178.096V18.2086C178.096 18.5118 178.259 18.6802 178.552 18.6802H181.419C181.712 18.6802 181.875 18.5118 181.875 18.2086V4.02555H187.544C187.837 4.02555 188 3.85711 188 3.55391V0.791419C188 0.488218 187.837 0.319774 187.544 0.319774H172.428Z" fill="#8CD3D6"/>
</svg>
