<svg width="273" height="28" viewBox="0 0 273 28" fill="none" xmlns="http://www.w3.org/2000/svg">
<path d="M0.662308 0.391365C0.236539 0.391365 0 0.635968 0 1.07625V26.3682C0 26.8085 0.236539 27.0531 0.662308 27.0531H4.82539C5.25116 27.0531 5.4877 26.8085 5.4877 26.3682V19.9596H12.1108C12.3 19.9596 12.5365 19.9596 12.8677 19.9107L16.0373 26.5639C16.2265 26.9063 16.5104 27.0531 16.8889 27.0531H21.525C21.9035 27.0531 22.14 26.7106 21.9508 26.3682L17.8823 18.2963C20.5789 16.6819 22.4239 13.6488 22.4239 10.1266C22.4239 4.59853 18.0242 0.391365 12.3 0.391365H0.662308ZM5.4877 14.5783V5.77263H12.3C15.2804 5.77263 16.9362 7.63161 16.9362 10.1266C16.9362 12.6215 15.2804 14.5783 12.3 14.5783H5.4877Z" fill="white"/>
<path d="M27.8162 0.391365C27.3904 0.391365 27.1539 0.635968 27.1539 1.07625V26.3682C27.1539 26.8085 27.3904 27.0531 27.8162 27.0531H31.9793C32.405 27.0531 32.6416 26.8085 32.6416 26.3682V1.07625C32.6416 0.635968 32.405 0.391365 31.9793 0.391365H27.8162Z" fill="white"/>
<path d="M43.3013 5.67479H51.2017C52.8575 5.67479 53.851 6.6532 53.851 8.21866C53.851 9.7352 52.7156 10.7625 51.2017 10.7625H43.3013V5.67479ZM56.5475 12.4258C58.2979 11.4963 59.2913 9.78411 59.2913 7.68053C59.2913 3.5712 55.9798 0.391365 51.1544 0.391365H38.5233C38.0975 0.391365 37.861 0.635968 37.861 1.07625V26.3682C37.861 26.8085 38.0975 27.0531 38.5233 27.0531H52.1479C57.4464 27.0531 60.9944 23.7754 60.9944 18.9323C60.9944 16.0459 59.386 13.7956 56.5475 12.7683V12.4258ZM43.3013 16.0459H52.006C54.324 16.0459 55.5067 16.9754 55.5067 18.8833C55.5067 20.5956 54.2294 21.7207 52.006 21.7207H43.3013V16.0459Z" fill="white"/>
<path d="M85.6576 26.3682C85.8469 26.8085 86.178 27.0531 86.6511 27.0531H91.1453C91.5711 27.0531 91.8076 26.6617 91.6657 26.2703L81.0215 0.782731C80.9269 0.538125 80.7376 0.391365 80.4065 0.391365H75.0134C74.6822 0.391365 74.493 0.538125 74.3984 0.782731L63.2338 26.3682C63.0919 26.8085 63.2338 27.0531 63.7069 27.0531H68.3903C68.7688 27.0531 69.0526 26.8574 69.1945 26.466L70.9922 21.7697H83.8599L85.6576 26.3682ZM77.2842 5.67479H77.8046L81.9676 16.633H72.9792L77.2842 5.67479Z" fill="white"/>
<path d="M105.803 0C99.6053 0 95.111 3.082 95.111 7.92513C95.111 13.4532 99.3214 15.41 105.661 15.9481C110.439 16.3884 112.236 17.22 112.236 19.1279C112.236 20.938 110.439 22.161 106.465 22.161C102.728 22.161 100.268 21.2315 97.6657 19.1279C97.3345 18.8344 97.0034 18.8833 96.7195 19.2747L94.496 22.3567C94.2122 22.7481 94.2122 23.0905 94.5434 23.3351C97.9495 26.2703 101.64 27.4444 106.37 27.4444C112.851 27.4444 117.677 24.3624 117.677 19.0301C117.677 13.4532 112.899 11.1539 106.276 10.5179C101.971 10.0776 100.551 9.29491 100.551 7.72945C100.551 6.21291 102.302 5.28342 105.519 5.28342C108.783 5.28342 111.527 6.26183 113.656 8.02297C114.034 8.36542 114.365 8.3165 114.649 7.97405L117.015 4.94098C117.251 4.59853 117.204 4.30501 116.873 4.06041C113.845 1.46762 109.966 0 105.803 0Z" fill="white"/>
<path d="M131.247 0.391365C130.821 0.391365 130.585 0.635968 130.585 1.07625V26.3682C130.585 26.8085 130.821 27.0531 131.247 27.0531H135.41C135.836 27.0531 136.073 26.8085 136.073 26.3682V1.07625C136.073 0.635968 135.836 0.391365 135.41 0.391365H131.247Z" fill="#8CD3D6"/>
<path d="M164.142 27.0531C164.567 27.0531 164.804 26.8085 164.804 26.3682V1.07625C164.804 0.635968 164.567 0.391365 164.142 0.391365H160.12C159.695 0.391365 159.458 0.635968 159.458 1.07625V10.4201L159.789 18.6877L159.553 18.7366L153.592 10.0287L146.496 0.733808C146.259 0.489205 145.975 0.391365 145.597 0.391365H141.954C141.529 0.391365 141.292 0.635968 141.292 1.07625V26.3682C141.292 26.8085 141.529 27.0531 141.954 27.0531H145.975C146.401 27.0531 146.638 26.8085 146.638 26.3682V16.9754L146.307 8.75678L146.543 8.70786L153.072 18.2474L159.553 26.7106C159.695 26.9552 159.931 27.0531 160.262 27.0531H164.142Z" fill="#8CD3D6"/>
<path d="M184.504 27.0531C184.835 27.0531 185.072 26.9063 185.214 26.5639L196.189 1.07625C196.331 0.635968 196.189 0.391365 195.763 0.391365H190.985C190.559 0.391365 190.228 0.587048 190.086 1.02733L186.585 9.93088L182.564 20.9869H182.28L178.212 9.9798L174.522 1.07625C174.333 0.635968 173.954 0.391365 173.387 0.391365H168.987C168.467 0.391365 168.277 0.733808 168.467 1.17409L179.253 26.5639C179.395 26.9063 179.679 27.0531 180.01 27.0531H184.504Z" fill="#8CD3D6"/>
<path d="M200.466 0.391365C200.135 0.391365 199.804 0.684888 199.804 1.07625V26.3682C199.804 26.8085 200.04 27.0531 200.466 27.0531H220.004C220.43 27.0531 220.667 26.8085 220.667 26.3682V22.4056C220.667 21.9653 220.43 21.7207 220.004 21.7207H205.292V15.9481H217.875C218.301 15.9481 218.538 15.7035 218.538 15.2632V11.3496C218.538 10.9093 218.301 10.6647 217.875 10.6647H205.292V5.67479H219.626C220.052 5.67479 220.288 5.43018 220.288 4.9899V1.07625C220.288 0.635968 220.052 0.391365 219.626 0.391365H200.466Z" fill="#8CD3D6"/>
<path d="M235.464 0C229.266 0 224.772 3.082 224.772 7.92513C224.772 13.4532 228.982 15.41 235.322 15.9481C240.1 16.3884 241.897 17.22 241.897 19.1279C241.897 20.938 240.1 22.161 236.126 22.161C232.389 22.161 229.929 21.2315 227.327 19.1279C226.995 18.8344 226.664 18.8833 226.38 19.2747L224.157 22.3567C223.873 22.7481 223.873 23.0905 224.204 23.3351C227.61 26.2703 231.3 27.4444 236.031 27.4444C242.512 27.4444 247.338 24.3624 247.338 19.0301C247.338 13.4532 242.56 11.1539 235.937 10.5179C231.632 10.0776 230.212 9.29491 230.212 7.72945C230.212 6.21291 231.963 5.28342 235.18 5.28342C238.444 5.28342 241.188 6.26183 243.317 8.02297C243.695 8.36542 244.026 8.3165 244.31 7.97405L246.675 4.94098C246.912 4.59853 246.865 4.30501 246.534 4.06041C243.506 1.46762 239.627 0 235.464 0Z" fill="#8CD3D6"/>
<path d="M250.387 0.391365C249.961 0.391365 249.725 0.635968 249.725 1.07625V5.08774C249.725 5.52803 249.961 5.77263 250.387 5.77263H258.618V26.3682C258.618 26.8085 258.855 27.0531 259.281 27.0531H263.444C263.87 27.0531 264.106 26.8085 264.106 26.3682V5.77263H272.338C272.763 5.77263 273 5.52803 273 5.08774V1.07625C273 0.635968 272.763 0.391365 272.338 0.391365H250.387Z" fill="#8CD3D6"/>
</svg>
