<svg width="18" height="18" viewBox="0 0 18 18" fill="none" xmlns="http://www.w3.org/2000/svg">
<path d="M8.04785 9.12232C8.31645 9.3422 8.65288 9.46234 9 9.46234C9.34712 9.46234 9.68355 9.3422 9.95215 9.12232L16.5403 3.7105C16.2617 3.37242 15.9121 3.09988 15.5162 2.91227C15.1204 2.72466 14.6881 2.62657 14.25 2.625H3.75C3.31194 2.62657 2.87962 2.72466 2.48377 2.91227C2.08792 3.09988 1.73828 3.37242 1.45972 3.7105L8.04785 9.12232Z" fill="#7A78C9"/>
<path d="M10.9043 10.2814C10.3669 10.7207 9.69412 10.9607 9 10.9607C8.30588 10.9607 7.63311 10.7207 7.09571 10.2814L0.802005 5.11133C0.769787 5.28059 0.752386 5.45234 0.75 5.62462V12.3746C0.750848 13.17 1.06719 13.9326 1.62962 14.495C2.19204 15.0574 2.95461 15.3738 3.75 15.3746H14.25C15.0454 15.3738 15.808 15.0574 16.3704 14.495C16.9328 13.9326 17.2492 13.17 17.25 12.3746V5.62462C17.2476 5.45234 17.2302 5.28059 17.198 5.11133L10.9043 10.2814Z" fill="#7A78C9"/>
</svg>
