<svg width="54" height="54" viewBox="0 0 54 54" fill="none" xmlns="http://www.w3.org/2000/svg">
<path opacity="0.3" d="M23.6518 3.02527C24.6569 -0.284607 29.3431 -0.284607 30.3482 3.02527C31.1014 5.50534 34.1954 6.33438 36.0877 4.56316C38.6132 2.19931 42.6715 4.54237 41.887 7.91139C41.2992 10.4358 43.5642 12.7008 46.0886 12.113C49.4576 11.3285 51.8007 15.3869 49.4368 17.9123C47.6656 19.8046 48.4947 22.8986 50.9747 23.6518C54.2846 24.6569 54.2846 29.3431 50.9747 30.3482C48.4947 31.1014 47.6656 34.1954 49.4368 36.0877C51.8007 38.6131 49.4576 42.6715 46.0886 41.887C43.5642 41.2992 41.2992 43.5642 41.887 46.0886C42.6715 49.4576 38.6131 51.8007 36.0877 49.4368C34.1954 47.6656 31.1014 48.4947 30.3482 50.9747C29.3431 54.2846 24.6569 54.2846 23.6518 50.9747C22.8986 48.4947 19.8046 47.6656 17.9123 49.4368C15.3869 51.8007 11.3285 49.4576 12.113 46.0886C12.7008 43.5642 10.4358 41.2992 7.91139 41.887C4.54237 42.6715 2.19931 38.6131 4.56316 36.0877C6.33438 34.1954 5.50534 31.1014 3.02527 30.3482C-0.284607 29.3431 -0.284607 24.6569 3.02527 23.6518C5.50534 22.8986 6.33438 19.8046 4.56316 17.9123C2.19931 15.3868 4.54237 11.3285 7.91139 12.113C10.4358 12.7008 12.7008 10.4358 12.113 7.91139C11.3285 4.54237 15.3868 2.1993 17.9123 4.56316C19.8046 6.33438 22.8986 5.50534 23.6518 3.02527Z" fill="#7A78C9"/>
</svg>
