<svg width="15" height="16" viewBox="0 0 15 16" fill="none" xmlns="http://www.w3.org/2000/svg">
<path d="M7.5 0.5C3.36232 0.5 0 3.86232 0 8C0 12.1377 3.36232 15.5 7.5 15.5C11.6377 15.5 15 12.1377 15 8C15 3.86232 11.6377 0.5 7.5 0.5ZM7.5 2.75C8.11688 2.75 8.625 3.25812 8.625 3.875V7.53418L10.9204 9.82959C11.3565 10.2658 11.3565 10.9842 10.9204 11.4204C10.4842 11.8565 9.76577 11.8565 9.32959 11.4204L6.70459 8.79541C6.49372 8.58457 6.37506 8.29819 6.375 8V3.875C6.375 3.25812 6.88312 2.75 7.5 2.75Z" fill="#F0609F"/>
</svg>
