<svg width="102" height="24" viewBox="0 0 102 24" fill="none" xmlns="http://www.w3.org/2000/svg">
<path d="M9.91134 2.91463C10.4257 2.0316 11.7013 2.0316 12.2156 2.91463L14.3444 6.56948C14.5328 6.89295 14.8485 7.12232 15.2144 7.20155L19.3482 8.09671C20.3469 8.31298 20.7411 9.52621 20.0602 10.2882L17.2421 13.4422C16.9927 13.7213 16.8721 14.0925 16.9098 14.4649L17.3359 18.673C17.4388 19.6897 16.4068 20.4395 15.4716 20.0274L11.6012 18.3219C11.2586 18.1709 10.8684 18.1709 10.5258 18.3219L6.65535 20.0274C5.72024 20.4395 4.6882 19.6897 4.79113 18.673L5.2172 14.4649C5.25491 14.0925 5.13432 13.7213 4.88491 13.4422L2.06675 10.2882C1.38588 9.52621 1.78008 8.31298 2.77882 8.09671L6.91262 7.20155C7.27848 7.12232 7.59418 6.89295 7.78258 6.56948L9.91134 2.91463Z" fill="#FDB913"/>
<path opacity="0.9" d="M29.8795 2.91464C30.3939 2.03162 31.6695 2.03162 32.1838 2.91464L34.3126 6.5695C34.501 6.89297 34.8167 7.12234 35.1826 7.20156L39.3164 8.09672C40.3151 8.31299 40.7093 9.52623 40.0284 10.2882L37.2103 13.4422C36.9609 13.7214 36.8403 14.0925 36.878 14.4649L37.3041 18.673C37.407 19.6897 36.375 20.4395 35.4398 20.0275L31.5694 18.3219C31.2268 18.1709 30.8366 18.1709 30.494 18.3219L26.6236 20.0275C25.6884 20.4395 24.6564 19.6897 24.7593 18.673L25.1854 14.4649C25.2231 14.0925 25.1025 13.7214 24.8531 13.4422L22.035 10.2882C21.3541 9.52623 21.7483 8.31299 22.747 8.09672L26.8808 7.20156C27.2467 7.12234 27.5624 6.89297 27.7508 6.5695L29.8795 2.91464Z" fill="#FDB913"/>
<path opacity="0.7" d="M49.8479 2.91464C50.3622 2.03162 51.6379 2.03162 52.1522 2.91464L54.2809 6.5695C54.4693 6.89297 54.785 7.12234 55.1509 7.20156L59.2847 8.09672C60.2834 8.31299 60.6776 9.52623 59.9968 10.2882L57.1786 13.4422C56.9292 13.7214 56.8086 14.0925 56.8463 14.4649L57.2724 18.673C57.3753 19.6897 56.3433 20.4395 55.4082 20.0275L51.5377 18.3219C51.1951 18.1709 50.8049 18.1709 50.4624 18.3219L46.5919 20.0275C45.6568 20.4395 44.6247 19.6897 44.7277 18.673L45.1537 14.4649C45.1914 14.0925 45.0708 13.7214 44.8214 13.4422L42.0033 10.2882C41.3224 9.52623 41.7166 8.31299 42.7153 8.09672L46.8491 7.20156C47.215 7.12234 47.5307 6.89297 47.7191 6.5695L49.8479 2.91464Z" fill="#FDB913"/>
<path opacity="0.4" d="M69.8161 2.91464C70.3304 2.03162 71.6061 2.03162 72.1204 2.91464L74.2492 6.5695C74.4376 6.89297 74.7533 7.12234 75.1191 7.20156L79.2529 8.09672C80.2517 8.31299 80.6459 9.52623 79.965 10.2882L77.1469 13.4422C76.8974 13.7214 76.7769 14.0925 76.8146 14.4649L77.2406 18.673C77.3436 19.6897 76.3115 20.4395 75.3764 20.0275L71.5059 18.3219C71.1634 18.1709 70.7732 18.1709 70.4306 18.3219L66.5601 20.0275C65.625 20.4395 64.593 19.6897 64.6959 18.673L65.122 14.4649C65.1597 14.0925 65.0391 13.7214 64.7897 13.4422L61.9715 10.2882C61.2907 9.52623 61.6849 8.31299 62.6836 8.09672L66.8174 7.20156C67.1833 7.12234 67.499 6.89297 67.6874 6.5695L69.8161 2.91464Z" fill="#FDB913"/>
<path opacity="0.2" d="M89.7844 2.91464C90.2987 2.03162 91.5744 2.03162 92.0887 2.91464L94.2175 6.5695C94.4059 6.89297 94.7216 7.12234 95.0874 7.20156L99.2212 8.09672C100.22 8.31299 100.614 9.52623 99.9333 10.2882L97.1151 13.4422C96.8657 13.7214 96.7451 14.0925 96.7828 14.4649L97.2089 18.673C97.3118 19.6897 96.2798 20.4395 95.3447 20.0275L91.4742 18.3219C91.1317 18.1709 90.7414 18.1709 90.3989 18.3219L86.5284 20.0275C85.5933 20.4395 84.5612 19.6897 84.6642 18.673L85.0902 14.4649C85.128 14.0925 85.0074 13.7214 84.758 13.4422L81.9398 10.2882C81.2589 9.52623 81.6531 8.31299 82.6519 8.09672L86.7857 7.20156C87.1515 7.12234 87.4672 6.89297 87.6556 6.5695L89.7844 2.91464Z" fill="#FDB913"/>
</svg>