<svg width="69" height="68" viewBox="0 0 69 68" fill="none" xmlns="http://www.w3.org/2000/svg">
<path opacity="0.5" d="M31.0076 3.36406C32.0028 -0.159384 36.9972 -0.159381 37.9924 3.36406L38.4905 5.12727C39.2557 7.8364 42.6802 8.68047 44.6168 6.63728L45.8772 5.30749C48.3959 2.65015 52.8181 4.97113 52.062 8.5535L51.6836 10.3462C51.1022 13.1006 53.7422 15.4395 56.4064 14.5303L58.1405 13.9386C61.6056 12.7561 64.4427 16.8664 62.1083 19.687L60.9401 21.0985C59.1453 23.2672 60.396 26.565 63.1776 26.9981L64.988 27.28C68.6057 27.8433 69.2077 32.8012 65.8299 34.2139L64.1396 34.9209C61.5424 36.0071 61.1173 39.5084 63.379 41.1846L64.851 42.2755C67.7926 44.4555 66.0216 49.1253 62.3742 48.8064L60.5489 48.6469C57.7445 48.4017 55.7409 51.3044 56.9646 53.8396L57.7611 55.4897C59.3526 58.787 55.6143 62.0988 52.5328 60.1215L50.9908 59.132C48.6215 57.6116 45.4985 59.2507 45.4039 62.0642L45.3422 63.8954C45.2191 67.5546 40.3699 68.7499 38.5604 65.567L37.6548 63.9742C36.2635 61.5269 32.7365 61.5269 31.3451 63.9742L30.4396 65.567C28.6301 68.7499 23.7809 67.5546 23.6578 63.8954L23.5961 62.0642C23.5015 59.2507 20.3785 57.6116 18.0092 59.132L16.4672 60.1215C13.3857 62.0989 9.64742 58.787 11.2389 55.4897L12.0354 53.8396C13.2591 51.3044 11.2555 48.4017 8.45106 48.6469L6.62581 48.8064C2.97842 49.1253 1.20741 44.4555 4.14896 42.2755L5.62099 41.1846C7.88271 39.5084 7.45757 36.0071 4.86043 34.9209L3.17011 34.2139C-0.207676 32.8012 0.39433 27.8433 4.01204 27.28L5.82243 26.9981C8.60405 26.565 9.85474 23.2672 8.05988 21.0985L6.89171 19.687C4.55734 16.8664 7.39444 12.7561 10.8595 13.9386L12.5936 14.5303C15.2578 15.4395 17.8978 13.1006 17.3164 10.3462L16.938 8.5535C16.1819 4.97113 20.6041 2.65015 23.1228 5.30749L24.3832 6.63728C26.3198 8.68047 29.7443 7.8364 30.5095 5.12727L31.0076 3.36406Z" fill="#8CD3D6"/>
</svg>