<svg width="20" height="19" viewBox="0 0 20 19" fill="none" xmlns="http://www.w3.org/2000/svg">
<path d="M8.91134 0.914627C9.42566 0.0316039 10.7013 0.0316032 11.2156 0.914626L13.3444 4.56948C13.5328 4.89295 13.8485 5.12232 14.2144 5.20155L18.3482 6.09671C19.3469 6.31298 19.7411 7.52621 19.0602 8.28822L16.2421 11.4422C15.9927 11.7213 15.8721 12.0925 15.9098 12.4649L16.3359 16.673C16.4388 17.6897 15.4068 18.4395 14.4716 18.0274L10.6012 16.3219C10.2586 16.1709 9.86838 16.1709 9.52583 16.3219L5.65535 18.0274C4.72024 18.4395 3.6882 17.6897 3.79113 16.673L4.2172 12.4649C4.25491 12.0925 4.13432 11.7213 3.88491 11.4422L1.06675 8.28823C0.385881 7.52621 0.780085 6.31298 1.77882 6.09671L5.91262 5.20155C6.27848 5.12232 6.59418 4.89295 6.78258 4.56948L8.91134 0.914627Z" fill="#FDB913"/>
</svg>