<svg width="229" height="227" viewBox="0 0 229 227" fill="none" xmlns="http://www.w3.org/2000/svg">
<path opacity="0.5" d="M119.278 4.3839L126.369 33.0379C127.557 37.8363 133.754 39.1534 136.79 35.2529L154.924 11.9607C158.079 7.90805 164.553 10.7906 163.653 15.8471L158.477 44.9084C157.61 49.775 162.735 53.4986 167.096 51.1705L193.135 37.2676C197.666 34.8485 202.408 40.1153 199.529 44.3683L182.98 68.812C180.209 72.9053 183.377 78.3916 188.307 78.0383L217.75 75.9286C222.873 75.5615 225.063 82.3017 220.703 85.0159L195.643 100.615C191.446 103.228 192.109 109.528 196.757 111.211L224.512 121.259C229.342 123.007 228.601 130.056 223.513 130.762L194.275 134.82C189.379 135.499 187.421 141.524 190.983 144.952L212.252 165.421C215.953 168.982 212.409 175.12 207.475 173.695L179.113 165.51C174.364 164.14 170.125 168.848 171.985 173.428L183.09 200.778C185.022 205.536 179.288 209.702 175.36 206.394L152.78 187.381C148.998 184.197 143.211 186.774 143.047 191.714L142.068 221.217C141.897 226.35 134.965 227.823 132.721 223.203L119.827 196.65C117.668 192.203 111.332 192.203 109.173 196.65L96.2787 223.203C94.0351 227.823 87.1029 226.35 86.9325 221.216L85.953 191.714C85.7889 186.774 80.0016 184.197 76.2204 187.381L53.6405 206.394C49.7117 209.702 43.9781 205.536 45.9103 200.778L57.0152 173.428C58.8748 168.848 54.6358 164.14 49.8865 165.51L21.5254 173.695C16.5908 175.12 13.0472 168.982 16.7479 165.421L38.017 144.952C41.5787 141.524 39.6211 135.499 34.7249 134.82L5.4865 130.762C0.399212 130.056 -0.341585 123.007 4.48774 121.259L32.2435 111.211C36.8914 109.528 37.5536 103.228 33.3571 100.615L8.29702 85.0159C3.93673 82.3017 6.12677 75.5615 11.2497 75.9286L40.6928 78.0383C45.6233 78.3916 48.7908 72.9052 46.0196 68.812L29.471 44.3683C26.5917 40.1153 31.3339 34.8485 35.8646 37.2676L61.9041 51.1705C66.2646 53.4986 71.3898 49.775 70.5231 44.9084L65.3473 15.8471C64.4467 10.7906 70.9211 7.90806 74.0762 11.9608L92.2097 35.2529C95.2463 39.1534 101.443 37.8362 102.631 33.0379L109.722 4.38388C110.956 -0.601732 118.044 -0.601725 119.278 4.3839Z" stroke="url(#paint0_linear_804_769)"/>
<defs>
<linearGradient id="paint0_linear_804_769" x1="114.5" y1="-17" x2="114.5" y2="246" gradientUnits="userSpaceOnUse">
<stop stop-color="#7A78C9"/>
<stop offset="1" stop-color="#51B4BA"/>
</linearGradient>
</defs>
</svg>