<svg width="171" height="228" viewBox="0 0 171 228" fill="none" xmlns="http://www.w3.org/2000/svg">
<g clip-path="url(#clip0_807_450)">
<path d="M69.4471 217.478C68.4674 219.235 67.4507 220.992 66.4156 222.712C66.2677 222.952 66.0089 223.229 65.7501 223.1C65.6577 223.044 65.6023 222.952 65.5468 222.841C64.5671 220.955 63.6059 219.069 62.6262 217.183" fill="#00A390"/>
<path d="M68.5043 216.924C67.9868 217.867 67.4507 218.791 66.9147 219.734C66.6374 220.215 66.3601 220.677 66.0828 221.158C65.9535 221.38 65.8241 221.602 65.6762 221.824C65.6022 221.935 65.5468 222.046 65.4728 222.157C65.3804 222.305 65.4544 222.194 65.5283 222.12C66.3601 222.582 66.6928 222.656 66.508 222.323C66.471 222.268 66.4525 222.212 66.4341 222.175C66.3786 222.046 66.3047 221.935 66.2492 221.805C66.1198 221.565 65.9904 221.325 65.8795 221.084C65.6392 220.603 65.3804 220.123 65.1401 219.642C64.6226 218.643 64.105 217.645 63.5874 216.628C63.3286 216.128 62.5708 215.925 62.0901 216.239C61.5726 216.572 61.4247 217.182 61.702 217.737C62.312 218.902 62.9035 220.067 63.495 221.232C63.7907 221.787 64.068 222.36 64.3638 222.915C64.6965 223.562 65.0847 224.246 65.9165 224.228C66.7298 224.228 67.1734 223.562 67.5616 222.933C67.8759 222.416 68.1901 221.879 68.5043 221.343C69.1513 220.252 69.7798 219.143 70.3898 218.033C70.6671 217.534 70.5192 216.831 70.0016 216.535C69.484 216.258 68.8001 216.387 68.5043 216.924Z" fill="#313242"/>
<path d="M138.506 206.809C138.561 210.655 138.617 214.501 138.672 218.347C134.661 215.74 131.593 211.931 128.617 208.177" fill="#00A390"/>
<path d="M137.415 206.809C137.471 210.655 137.526 214.501 137.582 218.348C138.118 218.033 138.672 217.719 139.227 217.405C135.271 214.816 132.295 211.062 129.393 207.419C129.023 206.957 128.247 207.031 127.859 207.419C127.397 207.881 127.489 208.492 127.859 208.954C130.909 212.763 134.014 216.591 138.136 219.291C138.839 219.753 139.781 219.143 139.781 218.348C139.726 214.501 139.671 210.655 139.615 206.809C139.597 205.404 137.415 205.404 137.434 206.809" fill="#313242"/>
<path d="M22.7362 140.424C19.908 141.367 17.6344 143.161 15.6381 144.992C13.6417 146.822 11.9966 148.912 10.6842 151.205C9.37175 153.498 8.28115 155.976 7.63419 158.638C7.04267 161.116 6.56207 163.705 6.41419 166.368C3.51209 215.925 39.6867 219.327 78.6894 218.828C82.4233 218.791 106.934 217.978 117.507 215.759C130.742 212.985 150.613 201.409 159.135 188.317C161.667 184.434 164.052 179.589 165.937 173.746C166.88 170.824 167.675 167.644 168.433 164.223C171.76 149.004 171.316 133.897 168.913 118.863C168.433 115.868 167.952 112.835 167.305 109.858C162.462 87.9269 157.305 66.4213 147.157 45.6923C145.789 42.9001 144.495 40.034 143.072 37.2602C134.513 20.5624 123.533 4.7707 104.679 0.647094C88.1351 -2.97724 72.4231 8.96826 72.4231 25.6291C72.4231 29.2719 72.6449 32.8593 73.1255 36.3911C73.5322 39.3868 74.1607 42.4009 74.8261 45.4705C75.4916 48.5215 76.2125 51.6281 77.0258 54.7347C83.6064 79.8091 102.59 110.967 79.7061 132.824C67.2289 146.36 48.5963 139.703 31.4795 139.222C28.2077 139.13 25.2501 139.592 22.7547 140.424" fill="#00A390"/>
<path d="M104.605 40.1818C107.359 39.6455 106.527 35.374 103.773 35.9102C101.019 36.4465 101.851 40.718 104.605 40.1818Z" fill="#313242"/>
<path d="M84.8633 49.7789C87.6176 49.2427 86.7857 44.9711 84.0315 45.5074C81.2773 46.0437 82.0906 50.3152 84.8633 49.7789Z" fill="#313242"/>
<path d="M110.705 51.6836C107.063 58.4515 99.5956 62.723 91.9245 62.2977C90.5197 62.2238 90.3533 64.3873 91.7581 64.4797C100.169 64.942 108.524 60.3561 112.516 52.9226C113.182 51.7021 111.389 50.4632 110.723 51.7021" fill="#313242"/>
<path d="M112.332 212.116C112.332 216.276 112.332 220.437 112.35 224.598C112.35 225.559 112.11 226.835 111.149 226.928C110.391 227.02 109.836 226.262 109.466 225.615C106.583 220.733 103.718 215.87 100.834 211.006" fill="#00A390"/>
<path d="M46.5445 211.58C42.7921 216.424 39.0212 221.269 35.2688 226.114C35.1025 219.993 32.9028 213.909 33.8085 207.844" fill="#00A390"/>
<path d="M111.241 212.116C111.241 214.926 111.241 217.737 111.241 220.548C111.241 221.953 111.296 223.396 111.241 224.801C111.241 225.004 111.223 225.781 110.982 225.873C110.945 225.873 110.52 225.319 110.446 225.189C107.433 220.363 104.642 215.37 101.758 210.47C101.056 209.268 99.1705 210.359 99.8729 211.561L107.877 225.097C108.413 226.003 108.93 227.131 109.873 227.704C110.76 228.24 111.888 228.111 112.59 227.353C113.219 226.687 113.404 225.707 113.422 224.819C113.478 223.562 113.422 222.286 113.422 221.029C113.422 218.07 113.422 215.093 113.404 212.134C113.404 210.729 111.223 210.729 111.223 212.134" fill="#313242"/>
<path d="M45.7681 210.803C42.0157 215.648 38.2449 220.492 34.4925 225.337C35.1209 225.596 35.7309 225.855 36.3594 226.114C36.1561 220.123 34.0119 214.15 34.8622 208.14C35.047 206.772 32.9582 206.18 32.7734 207.567C31.8861 213.835 33.9934 219.882 34.1967 226.114C34.2337 226.964 35.4352 227.686 36.0637 226.89C39.8161 222.046 43.5869 217.201 47.3393 212.356C48.1896 211.265 46.6554 209.712 45.8051 210.821" fill="#313242"/>
<path d="M168.451 164.241C171.778 149.023 171.335 133.915 168.932 118.882C168.451 115.886 167.971 112.853 167.305 109.876C166.067 104.255 164.791 98.6705 163.442 93.123C152.111 98.7075 124.846 109.174 90.4272 101.814C91.4993 113.02 89.2442 123.745 79.7061 132.843C67.2289 146.379 48.5963 139.722 31.4795 139.241C28.2077 139.148 25.2501 139.611 22.7547 140.443C19.908 141.386 17.6529 143.179 15.6566 145.01C13.6602 146.841 12.0151 148.93 10.7027 151.223C9.37175 153.516 8.29964 155.994 7.65267 158.657C7.06116 161.135 6.58056 163.724 6.43268 166.386C5.15724 188.095 11.3866 200.928 22.0708 208.491C30.9064 199.338 35.1949 200.022 44.4188 200.503C51.5724 200.873 53.9384 210.655 54.7332 218.236C62.3859 218.884 70.4822 218.958 78.7264 218.847C80.1497 218.847 84.6046 218.699 90.15 218.421C89.4845 214.908 90.0206 210.488 94.0687 205.755C103.477 194.808 119.374 208.085 120.058 211.949C120.243 212.966 120.409 214.002 120.539 215C133.626 211.284 151.26 200.448 159.153 188.317C161.686 184.434 164.07 179.589 165.956 173.746C166.898 170.824 167.693 167.644 168.451 164.223" fill="#54C3BE"/>
<path d="M1.20151 89.7575C1.20151 115.72 8.02237 143.864 9.35327 147.654C10.6842 151.445 79.9094 146.304 83.9576 146.027C88.0242 145.75 85.307 83.8032 80.4455 83.8032C75.584 83.8032 1.20151 89.7575 1.20151 89.7575Z" stroke="#313242" stroke-width="2.5" stroke-linecap="round" stroke-linejoin="round"/>
<path d="M83.9576 146.027C83.9576 146.027 102.424 131.678 109.781 119.362L85.8245 121.914" stroke="#313242" stroke-width="2.5" stroke-linecap="round" stroke-linejoin="round"/>
<path d="M85.9355 127.48L97.3775 126.26L85.9355 137.429" stroke="#313242" stroke-width="2.5" stroke-linecap="round" stroke-linejoin="round"/>
<path d="M41.9418 106.789C46.0639 106.363 50.6112 110.746 51.0363 115.96C51.4615 121.175 56.4338 125.835 54.9551 129.311C53.4763 132.806 46.7109 135.339 43.6424 133.231C43.6424 133.231 38.5406 135.987 34.3076 133.564C30.0746 131.123 30.6662 124.873 33.7531 120.065C37.1173 114.814 35.731 114.61 36.7846 109.969C37.8382 105.309 41.9603 106.789 41.9603 106.789H41.9418Z" stroke="#313242" stroke-width="2.5" stroke-linecap="round" stroke-linejoin="round"/>
<path d="M42.367 100.021L41.9603 106.788" stroke="#313242" stroke-width="2.5" stroke-linecap="round" stroke-linejoin="round"/>
<path d="M53.0696 101.019C49.0215 98.911 43.0324 102.018 42.1451 106.252C42.1451 106.252 51.369 108.083 53.0696 101.019Z" stroke="#313242" stroke-width="2.5" stroke-linecap="round" stroke-linejoin="round"/>
</g>
<defs>
<clipPath id="clip0_807_450">
<rect width="170.836" height="228" fill="white"/>
</clipPath>
</defs>
</svg>
