<svg width="179" height="158" viewBox="0 0 179 158" fill="none" xmlns="http://www.w3.org/2000/svg">
<path d="M51.6803 148.972C50.8828 150.418 50.0521 151.848 49.1965 153.27C49.0802 153.47 48.8559 153.694 48.6565 153.586C48.5735 153.545 48.5319 153.461 48.4904 153.378C47.6929 151.832 46.8954 150.285 46.098 148.739" fill="#00A390"/>
<path d="M50.9078 148.522C50.4841 149.296 50.0438 150.061 49.6036 150.826C49.3793 151.216 49.1467 151.599 48.9224 151.99C48.8144 152.173 48.6981 152.355 48.5901 152.547C48.532 152.638 48.4821 152.73 48.424 152.821C48.3575 152.937 48.4074 152.846 48.4738 152.796C49.1633 153.17 49.4291 153.228 49.2713 152.954C49.2464 152.913 49.2298 152.871 49.2048 152.829C49.155 152.73 49.1051 152.63 49.0553 152.53C48.9556 152.331 48.8559 152.131 48.7479 151.94C48.5486 151.549 48.3409 151.15 48.1332 150.759C47.7096 149.936 47.2859 149.113 46.8622 148.29C46.6463 147.874 46.0315 147.716 45.6411 147.965C45.2174 148.24 45.0928 148.747 45.3171 149.188C45.8072 150.144 46.2974 151.1 46.7958 152.048C47.0367 152.505 47.2693 152.971 47.5102 153.428C47.7843 153.96 48.0917 154.517 48.7895 154.501C49.454 154.484 49.8279 153.944 50.1352 153.436C50.3927 153.004 50.6503 152.572 50.9078 152.139C51.4394 151.241 51.9545 150.335 52.4529 149.42C52.6772 149.013 52.5692 148.431 52.1289 148.198C51.7053 147.974 51.1487 148.082 50.9078 148.522Z" fill="#252525"/>
<path d="M108.326 140.208C108.368 143.368 108.417 146.519 108.459 149.678C105.169 147.541 102.661 144.415 100.21 141.339" fill="#00A390"/>
<path d="M107.429 140.208C107.47 143.368 107.52 146.519 107.562 149.678C108.01 149.42 108.459 149.163 108.908 148.905C105.668 146.785 103.226 143.7 100.841 140.707C100.542 140.333 99.8944 140.391 99.5788 140.707C99.2049 141.081 99.2797 141.588 99.5788 141.971C102.071 145.097 104.629 148.231 108.002 150.451C108.567 150.826 109.356 150.335 109.348 149.678C109.306 146.519 109.256 143.368 109.215 140.208C109.198 139.061 107.412 139.052 107.429 140.208Z" fill="#252525"/>
<path d="M13.3931 85.7485C8.899 87.7024 5.67587 90.8203 3.50773 94.5868C2.42781 96.4741 1.60541 98.5195 1.0073 100.681C0.591952 102.727 0.243056 104.855 0.0021517 107.033C-0.280288 147.758 27.2825 150.485 59.2729 150.077C62.3382 150.036 82.433 149.379 91.1056 147.566C101.963 145.297 118.253 135.793 125.248 125.051C134.277 111.191 140.856 82.6389 123.146 35.7205C115.703 15.9986 95.2092 -11.73 71.9993 5.30625C65.6195 9.95403 62.3881 15.7991 61.1254 22.1763C60.7018 24.3048 60.5024 26.4915 60.4692 28.7364C60.4442 33.6502 61.3497 38.5723 62.3632 43.4945C62.8699 45.9556 63.3932 48.4167 63.8418 50.8694C66.5831 62.6094 62.7204 74.9979 51.888 81.9654C41.8281 88.1597 30.9957 85.0667 20.4624 84.7175C17.854 84.9171 15.4948 85.2663 13.3931 85.7485Z" fill="#00A390"/>
<path d="M103.392 30.4159C105.693 30.4159 105.693 26.8406 103.392 26.8406C101.091 26.8406 101.091 30.4159 103.392 30.4159Z" fill="#252525"/>
<path d="M86.0051 35.0802C88.3061 35.0802 88.3061 31.505 86.0051 31.505C83.704 31.505 83.704 35.0802 86.0051 35.0802Z" fill="#252525"/>
<path d="M106.532 40.6343C102.553 45.5149 95.8738 47.8014 89.7598 46.2632C88.6467 45.9805 88.1731 47.7099 89.2863 47.9843C95.9818 49.6721 103.425 47.2692 107.803 41.8981C108.525 41.0168 107.271 39.7447 106.54 40.6343" fill="#252525"/>
<path d="M86.8523 144.565C86.8523 147.982 86.8689 151.391 86.8773 154.808C86.8773 155.598 86.6779 156.637 85.8887 156.729C85.274 156.795 84.8171 156.189 84.5014 155.656C82.1422 151.657 79.783 147.658 77.4238 143.659" fill="#00A390"/>
<path d="M32.9064 144.133C29.8245 148.107 26.7426 152.081 23.6607 156.055C23.5194 151.025 21.7168 146.037 22.4644 141.065" fill="#00A390"/>
<path d="M85.9635 144.565L85.9802 151.474C85.9802 152.638 86.03 153.802 85.9802 154.966C85.9802 155.133 85.9552 155.773 85.7642 155.839C85.7309 155.848 85.3904 155.39 85.3156 155.274C82.8401 151.308 80.5557 147.217 78.1881 143.201C77.6067 142.212 76.0615 143.11 76.643 144.099C78.8278 147.799 81.0125 151.507 83.1973 155.207C83.6376 155.956 84.0612 156.879 84.8421 157.344C85.5731 157.777 86.4869 157.668 87.0684 157.045C87.5834 156.496 87.7329 155.69 87.7579 154.966C87.7994 153.935 87.7579 152.896 87.7579 151.857C87.7579 149.421 87.7496 146.993 87.7413 144.557C87.7413 143.409 85.9552 143.409 85.9552 144.557" fill="#252525"/>
<path d="M32.2751 143.501C29.1931 147.475 26.1112 151.449 23.0293 155.424C23.536 155.631 24.0428 155.848 24.5495 156.055C24.3834 151.133 22.6306 146.244 23.3201 141.306C23.4779 140.183 21.7583 139.693 21.6005 140.832C20.8778 145.978 22.5974 150.942 22.7635 156.055C22.7884 156.746 23.777 157.336 24.2837 156.687C27.3656 152.713 30.4475 148.739 33.5294 144.764C34.2272 143.866 32.9729 142.594 32.2668 143.501" fill="#252525"/>
<path d="M100.476 46.5043C129.335 47.9344 162.48 79.3547 166.982 87.744" stroke="#252525" stroke-width="1.26619" stroke-linecap="round" stroke-linejoin="round"/>
<path d="M138.871 62.0024C138.747 64.8792 137.417 67.3403 137.708 70.2088C137.999 73.0773 138.713 75.9374 140.15 78.4401C140.383 77.143 141.38 76.1287 141.903 74.9231C142.285 74.0334 142.41 73.0523 142.443 72.0878C142.584 68.4212 141.463 64.5965 138.863 62.0024" stroke="#252525" stroke-width="1.26619" stroke-linecap="round" stroke-linejoin="round"/>
<path d="M145.891 67.6313C145.766 70.5081 144.437 72.9692 144.728 75.8376C145.018 78.7061 145.733 81.5663 147.17 84.0689C147.402 82.7719 148.399 81.7575 148.923 80.5519C149.305 79.6623 149.429 78.6812 149.463 77.7167C149.604 74.05 148.482 70.2254 145.882 67.6313" stroke="#252525" stroke-width="1.26619" stroke-linecap="round" stroke-linejoin="round"/>
<path d="M152.91 73.3849C152.785 76.2617 151.456 78.7228 151.747 81.5913C152.038 84.4598 152.752 87.3199 154.189 89.8226C154.422 88.5255 155.419 87.5112 155.942 86.3056C156.324 85.4159 156.449 84.4348 156.482 83.4703C156.623 79.8037 155.502 75.979 152.902 73.3849" stroke="#252525" stroke-width="1.26619" stroke-linecap="round" stroke-linejoin="round"/>
<path d="M159.614 79.5209C159.489 82.3977 158.16 84.8588 158.451 87.7273C158.742 90.5958 159.456 93.4559 160.893 95.9586C161.126 94.6615 162.123 93.6472 162.646 92.4416C163.028 91.5519 163.153 90.5708 163.186 89.6064C163.327 85.9397 162.206 82.115 159.605 79.5209" stroke="#252525" stroke-width="1.26619" stroke-linecap="round" stroke-linejoin="round"/>
<path d="M166.982 87.744C168.029 90.4295 167.796 93.2149 169.217 95.7258C170.637 98.2368 172.44 100.565 174.758 102.278C174.45 100.997 174.957 99.6669 174.949 98.3532C174.949 97.3804 174.658 96.4326 174.309 95.5346C172.963 92.1174 170.396 89.066 166.982 87.744Z" stroke="#252525" stroke-width="1.26619" stroke-linecap="round" stroke-linejoin="round"/>
<path d="M140.258 62.4098C143.099 61.9442 145.384 60.3395 148.266 60.2896C151.149 60.2398 154.073 60.6139 156.723 61.7447C155.46 62.1271 154.58 63.2413 153.442 63.8981C152.603 64.3887 151.647 64.6215 150.684 64.7711C147.062 65.3448 143.133 64.6797 140.258 62.4015" stroke="#252525" stroke-width="1.26619" stroke-linecap="round" stroke-linejoin="round"/>
<path d="M148.275 68.6955C151.116 68.2299 153.4 66.6252 156.283 66.5754C159.165 66.5255 162.089 66.8996 164.739 68.0304C163.477 68.4128 162.596 69.527 161.458 70.1838C160.619 70.6744 159.664 70.9072 158.7 71.0568C155.078 71.6305 151.149 70.9654 148.275 68.6872" stroke="#252525" stroke-width="1.26619" stroke-linecap="round" stroke-linejoin="round"/>
<path d="M155.062 74.075C157.944 74.1498 160.478 72.9858 163.319 73.4764C166.16 73.9669 168.968 74.8732 171.36 76.4779C170.056 76.6192 168.976 77.5505 167.738 77.9911C166.824 78.3154 165.836 78.3736 164.872 78.3403C161.209 78.2322 157.471 76.852 155.062 74.0833" stroke="#252525" stroke-width="1.26619" stroke-linecap="round" stroke-linejoin="round"/>
<path d="M162.131 81.3667C164.997 81.6744 167.622 80.7265 170.413 81.4499C173.204 82.1649 175.929 83.304 178.18 85.0916C176.868 85.1249 175.713 85.9646 174.45 86.3055C173.511 86.555 172.523 86.53 171.559 86.4219C167.913 86.0145 164.307 84.335 162.131 81.3751" stroke="#252525" stroke-width="1.26619" stroke-linecap="round" stroke-linejoin="round"/>
</svg>