<svg width="110" height="55" viewBox="0 0 110 55" fill="none" xmlns="http://www.w3.org/2000/svg">
<g clip-path="url(#clip0_807_1215)">
<path d="M10.3928 8.54104H7.20917V15.8926C7.20917 16.4332 7.24054 16.7761 7.30347 16.92C7.36659 17.0639 7.50146 17.1769 7.70812 17.2577C7.9146 17.339 8.18486 17.3887 8.51737 17.4064C8.85006 17.4245 9.62848 17.4331 10.8516 17.4331C12.1282 17.4331 13.0814 17.0458 13.7111 16.2711C14.2864 15.5683 14.5747 14.5864 14.5747 13.3249C14.5747 11.8294 14.2416 10.6767 13.5764 9.86572C12.8569 8.98278 11.7957 8.54104 10.3928 8.54104ZM7.20917 8.2988H9.69903C11.0013 8.2988 11.9651 8.05463 12.5902 7.56632C13.3394 6.98765 13.7145 6.01972 13.7145 4.66271C13.7145 3.14321 13.4106 2.07606 12.8043 1.46089C12.1972 0.846248 11.1711 0.538489 9.72556 0.538489H8.44058C8.06542 0.538489 7.78873 0.565602 7.61068 0.620166C7.43229 0.674559 7.32047 0.792028 7.27574 0.972929C7.23119 1.15418 7.20917 1.5066 7.20917 2.03123V8.2988ZM12.5585 17.6758H0.0318604V17.4064C1.91339 17.4064 3.04252 17.3344 3.41872 17.1899C3.59781 17.1182 3.72332 17.0147 3.7951 16.8789C3.86652 16.7442 3.90257 16.4152 3.90257 15.8926V2.02513C3.90257 1.52066 3.86652 1.19657 3.7951 1.05199C3.75904 0.98005 3.64271 0.90812 3.44559 0.835656C2.92585 0.637899 1.7877 0.538489 0.0318604 0.538489V0.295898H11.0263C12.9619 0.295898 14.5029 0.816881 15.6497 1.85832C16.5639 2.6848 17.021 3.53769 17.021 4.41786C17.021 5.49562 16.744 6.30351 16.1905 6.84256C15.4581 7.57884 14.0739 8.09964 12.0384 8.4048C14.1823 8.67432 15.7548 9.29436 16.7559 10.2646C17.5775 11.0552 17.9886 12.0703 17.9886 13.3098C17.9886 14.3158 17.5225 15.2596 16.5909 16.1394C15.5156 17.1638 14.1714 17.6758 12.5585 17.6758Z" fill="#231F20"/>
<path d="M26.3486 8.35249H28.8387C30.141 8.35249 31.1047 8.10851 31.7296 7.62021C32.4789 7.04153 32.854 6.06472 32.854 4.68964C32.854 3.17067 32.546 2.09865 31.9302 1.47479C31.3146 0.850936 30.2926 0.538489 28.8652 0.538489H27.5802C27.205 0.538489 26.9281 0.5656 26.7501 0.620166C26.5717 0.674558 26.4599 0.787161 26.4155 0.959198C26.3709 1.13089 26.3486 1.47897 26.3486 2.00377V8.35249ZM37.2357 13.7956V14.6846C37.2357 15.7449 37.1364 16.4811 36.9382 16.8943C36.6141 17.5772 35.9743 17.9182 35.02 17.9182C33.7767 17.9182 32.9569 17.4513 32.561 16.517C32.2366 15.7626 32.0744 14.3254 32.0744 12.2056V11.64C32.0744 11.4605 32.0833 11.2719 32.1013 11.0742C32.1013 10.1222 31.8782 9.48012 31.4324 9.14751C30.9861 8.81526 30.3443 8.64912 29.5059 8.64912H26.3486V15.8926C26.3486 16.4332 26.3798 16.7761 26.4427 16.92C26.5052 17.0638 26.6398 17.1768 26.8459 17.2577C27.0517 17.339 27.4731 17.3886 28.1095 17.4064C28.7452 17.4245 29.4131 17.4331 30.1121 17.4331V17.6758H19.1713V17.4064C21.0528 17.4064 22.182 17.3344 22.5581 17.1899C22.7372 17.1182 22.8629 17.0147 22.9347 16.8789C23.0061 16.7441 23.0422 16.4152 23.0422 15.8926V1.9982C23.0422 1.49374 23.0061 1.1785 22.9347 1.05199C22.8987 0.980049 22.7823 0.90812 22.5852 0.835656C22.0652 0.637898 20.9272 0.538489 19.1713 0.538489V0.295898H30.1657C32.1013 0.295898 33.6424 0.817756 34.7893 1.86094C35.7035 2.68862 36.1605 3.54291 36.1605 4.42429C36.1605 5.46782 35.8004 6.32244 35.0804 6.98765C34.2166 7.79744 32.8488 8.30991 30.9774 8.52574C32.8876 8.90249 34.1493 9.96964 34.7625 11.7281C35.0709 12.607 35.225 13.935 35.225 15.7109C35.225 16.2312 35.2704 16.6077 35.3612 16.8409C35.4518 17.0741 35.6696 17.1905 36.0139 17.1905C36.3948 17.1905 36.6575 16.8899 36.8031 16.2881C36.948 15.6865 37.0205 14.8556 37.0205 13.7956H37.2357Z" fill="#231F20"/>
<path d="M50.5418 8.98555C50.5418 6.15197 50.1623 3.99975 49.4028 2.52873C48.6435 1.05807 47.5043 0.322481 45.9856 0.322481C44.4843 0.322481 43.3545 1.05807 42.5951 2.52873C41.8358 3.99975 41.4559 6.15197 41.4559 8.98555C41.4559 11.7837 41.8358 13.9318 42.5951 15.4291C43.3545 16.9268 44.4843 17.6754 45.9856 17.6754C47.468 17.6754 48.5986 16.9268 49.3761 15.4291C50.1529 13.9318 50.5418 11.7837 50.5418 8.98555ZM54.1171 8.972C54.1171 11.6127 53.2302 13.8046 51.456 15.5466C49.8428 17.1276 48.0239 17.9178 45.9989 17.9178C43.9378 17.9178 42.1189 17.1635 40.5421 15.6544C38.7678 13.948 37.8806 11.7204 37.8806 8.972C37.8806 6.33131 38.7678 4.14885 40.5421 2.4243C42.1549 0.861538 43.9735 0.0800781 45.9989 0.0800781C48.0595 0.0800781 49.8785 0.825735 51.456 2.31655C53.2302 4.00513 54.1171 6.22356 54.1171 8.972Z" fill="#231F20"/>
<path d="M11.2139 31.4441H8.03026V38.7958C8.03026 39.3362 8.06147 39.6793 8.12457 39.8232C8.1875 39.967 8.32256 40.0799 8.52903 40.1606C8.73569 40.2419 9.00579 40.2916 9.33847 40.3093C9.67116 40.3274 10.4494 40.3363 11.6725 40.3363C12.9493 40.3363 13.9025 39.9491 14.5321 39.1744C15.1076 38.4715 15.3957 37.4893 15.3957 36.2281C15.3957 34.7325 15.0625 33.5798 14.3973 32.7688C13.6778 31.886 12.6168 31.4441 11.2139 31.4441ZM8.03026 31.202H10.52C11.8224 31.202 12.786 30.9576 13.4112 30.4693C14.1602 29.8908 14.5355 28.9229 14.5355 27.5659C14.5355 26.0463 14.2317 24.9792 13.6253 24.3639C13.0184 23.7493 11.9922 23.4415 10.5463 23.4415H9.26168C8.88651 23.4415 8.60982 23.4687 8.43161 23.5234C8.25322 23.5777 8.14139 23.695 8.09684 23.876C8.05228 24.0572 8.03026 24.4096 8.03026 24.9342V31.202ZM13.3794 40.5788H0.852783V40.3093C2.73431 40.3093 3.86344 40.2374 4.23963 40.093C4.41873 40.0214 4.54441 39.9177 4.61601 39.7821C4.68762 39.6471 4.72368 39.3183 4.72368 38.7958V24.9283C4.72368 24.4238 4.68762 24.0997 4.61601 23.9551C4.57996 23.8832 4.46379 23.8111 4.26668 23.7388C3.74677 23.5411 2.6088 23.4415 0.852783 23.4415V23.1992H11.8472C13.7829 23.1992 15.3239 23.7199 16.4709 24.7615C17.3851 25.5879 17.842 26.4408 17.842 27.3208C17.842 28.3985 17.5652 29.2065 17.0114 29.7455C16.2791 30.4818 14.895 31.0026 12.8595 31.3079C15.0033 31.5773 16.5759 32.1975 17.5767 33.1675C18.3983 33.9582 18.8097 34.9734 18.8097 36.213C18.8097 37.2189 18.3436 38.1625 17.4119 39.0425C16.3366 40.0668 14.9924 40.5788 13.3794 40.5788Z" fill="#231F20"/>
<path d="M35.691 35.3967C35.691 37.3402 34.9828 38.8063 33.5673 39.7957C32.5815 40.4795 31.5512 40.8212 30.476 40.8212C28.4504 40.8212 26.7572 40.3987 25.3952 39.5526C23.8901 38.6173 23.1374 37.3221 23.1374 35.6668V24.9531C23.1374 24.4494 23.1012 24.1252 23.0298 23.9812C22.9936 23.9097 22.8863 23.8377 22.7073 23.7654C22.1336 23.5499 21.148 23.4415 19.7501 23.4415V23.1992H30.0999V23.4415C29.2751 23.4415 28.6077 23.4684 28.097 23.5224C27.5864 23.5765 27.2141 23.6485 26.9814 23.7381C26.7484 23.8281 26.6138 23.9089 26.5781 23.9806C26.4885 24.1422 26.4439 24.4655 26.4439 24.9505V35.1088C26.4439 36.9054 26.7126 38.1901 27.2504 38.9621C27.8955 39.8963 29.0599 40.3633 30.7448 40.3633C31.6764 40.3633 32.5815 40.0309 33.4597 39.3662C34.6965 38.4324 35.3149 37.1029 35.3149 35.3785V28.3456C35.3149 26.4957 35.0278 25.2157 34.4546 24.5058C33.8807 23.7965 32.9399 23.4415 31.6318 23.4415V23.1992H38.8631V23.4415C37.5192 23.4415 36.6226 23.8196 36.1748 24.575C35.8524 25.1146 35.691 26.0232 35.691 27.3005V35.3967Z" fill="#231F20"/>
<path d="M46.0943 31.2557H48.5841C49.8865 31.2557 50.8502 31.0114 51.4752 30.5232C52.2244 29.9445 52.5997 28.9677 52.5997 27.5928C52.5997 26.0738 52.2915 25.0018 51.676 24.3779C51.0602 23.754 50.0382 23.4415 48.6107 23.4415H47.3256C46.9505 23.4415 46.6738 23.4687 46.4956 23.5234C46.3172 23.5777 46.2054 23.6903 46.161 23.8622C46.1164 24.0339 46.0943 24.3821 46.0943 24.9067V31.2557ZM56.9812 36.6989V37.588C56.9812 38.6478 56.8819 39.3843 56.684 39.7974C56.3595 40.4802 55.7198 40.8212 54.7655 40.8212C53.5224 40.8212 52.7024 40.3545 52.3065 39.4202C51.982 38.6656 51.8202 37.2285 51.8202 35.1088V34.5432C51.8202 34.3636 51.8289 34.1748 51.8468 33.9771C51.8468 33.0253 51.6237 32.3833 51.1778 32.0507C50.7317 31.7182 50.0898 31.5521 49.2514 31.5521H46.0943V38.7958C46.0943 39.3362 46.1253 39.6793 46.1882 39.8232C46.2506 39.967 46.3853 40.0799 46.5917 40.1606C46.7972 40.2419 47.2188 40.2916 47.855 40.3093C48.4909 40.3274 49.1588 40.3363 49.8577 40.3363V40.5788H38.9167V40.3093C40.7985 40.3093 41.9274 40.2374 42.3036 40.093C42.4829 40.0214 42.6084 39.9177 42.6802 39.7821C42.7517 39.6471 42.7877 39.3183 42.7877 38.7958V24.9012C42.7877 24.3968 42.7517 24.0817 42.6802 23.9551C42.6441 23.8832 42.5278 23.8111 42.3307 23.7388C41.8108 23.5411 40.6728 23.4415 38.9167 23.4415V23.1992H49.9113C51.8468 23.1992 53.3879 23.7207 54.5351 24.7639C55.449 25.5917 55.906 26.446 55.906 27.3275C55.906 28.3709 55.546 29.2256 54.8262 29.8908C53.9623 30.7005 52.5945 31.2131 50.7229 31.4288C52.6331 31.8054 53.8948 32.8728 54.508 34.631C54.8164 35.5102 54.9708 36.838 54.9708 38.6139C54.9708 39.1341 55.016 39.5106 55.1066 39.7439C55.1973 39.9772 55.4151 40.0937 55.7594 40.0937C56.1405 40.0937 56.4032 39.7931 56.5487 39.1911C56.6936 38.5894 56.7661 37.7587 56.7661 36.6989H56.9812Z" fill="#231F20"/>
<path d="M64.4273 31.5521V38.7688C64.4273 39.2737 64.4537 39.5888 64.5074 39.7149C64.5611 39.8412 64.7311 39.9536 65.0171 40.0531C65.3031 40.1524 65.6338 40.211 66.009 40.2285C66.3845 40.2467 67.0544 40.2555 68.02 40.2555C70.0572 40.2555 71.5989 39.6471 72.6446 38.4303C73.6906 37.2135 74.3476 35.2622 74.6153 32.5759H74.9649V40.5788H57.4918V40.3093C59.0866 40.3093 60.1438 40.2102 60.6639 40.012C60.8428 39.9401 60.9638 39.8453 61.0268 39.7283C61.0893 39.6112 61.121 39.3003 61.121 38.7958V24.955C61.121 24.4331 61.0848 24.1085 61.0133 23.9821C60.9771 23.9102 60.8609 23.8382 60.6639 23.7663C60.4664 23.6941 60.0632 23.6221 59.4541 23.5499C58.845 23.4777 58.1908 23.4415 57.4918 23.4415V23.1992H74.0778V29.9354H73.7283C73.7283 28.5465 73.3798 27.2207 72.6829 25.958C71.7539 24.2806 70.4402 23.4415 68.7425 23.4415C68.0634 23.4415 67.38 23.4462 66.6919 23.4551C66.0041 23.4642 65.3921 23.5502 64.8562 23.7127C64.6955 23.7851 64.5834 23.8802 64.521 23.9978C64.4585 24.1156 64.4273 24.4365 64.4273 24.9612V31.2828C66.2805 31.2828 67.4302 31.0942 67.876 30.7168C68.5532 30.1421 69.0253 28.5974 69.2929 26.0822H69.6154V36.6989H69.2929C69.0253 34.2377 68.5619 32.7201 67.9027 32.1448C67.439 31.75 66.2805 31.5521 64.4273 31.5521Z" fill="#231F20"/>
<path d="M86.3205 34.2194L83.8638 27.3592L81.4074 34.2194H86.3205ZM86.4541 34.5161H81.274L80.4457 36.898C80.2322 37.4939 80.1256 38.0083 80.1256 38.4411C80.1256 39.1088 80.3764 39.5871 80.8779 39.876C81.3797 40.1646 82.0879 40.3092 83.0017 40.3092V40.5787H76.1741V40.3092C77.4105 40.3092 78.369 39.8416 79.0503 38.9058C79.4266 38.3844 79.9104 37.3048 80.5019 35.6673L85.0448 22.9834H85.5826L91.3889 38.7977C91.6578 39.5358 91.9267 39.9724 92.1955 40.1072C92.4641 40.2418 93.2706 40.3092 94.6147 40.3092V40.5787H84.6954V40.3092C86.0394 40.3092 86.9623 40.2599 87.4642 40.1605C87.9657 40.0613 88.2169 39.8582 88.2169 39.5514L88.1632 39.2806L86.4541 34.5161Z" fill="#231F20"/>
<path d="M106.796 35.3967C106.796 37.3402 106.087 38.8063 104.673 39.7957C103.686 40.4795 102.656 40.8212 101.581 40.8212C99.5548 40.8212 97.8621 40.3987 96.5005 39.5526C94.9952 38.6173 94.2423 37.3221 94.2423 35.6668V24.9531C94.2423 24.4494 94.2062 24.1252 94.1349 23.9812C94.0987 23.9097 93.9914 23.8377 93.8122 23.7654C93.2386 23.5499 92.253 23.4415 90.8552 23.4415V23.1992H101.205V23.4415C100.38 23.4415 99.7126 23.4684 99.2012 23.5224C98.6915 23.5765 98.3192 23.6485 98.0864 23.7381C97.8532 23.8281 97.7189 23.9089 97.6833 23.9806C97.5933 24.1422 97.549 24.4655 97.549 24.9505V35.1088C97.549 36.9054 97.8177 38.1901 98.3551 38.9621C99 39.8963 100.165 40.3633 101.85 40.3633C102.781 40.3633 103.686 40.0309 104.565 39.3662C105.801 38.4324 106.42 37.1029 106.42 35.3785V28.3456C106.42 26.4957 106.132 25.2157 105.56 24.5058C104.986 23.7965 104.045 23.4415 102.738 23.4415V23.1992H109.969V23.4415C108.623 23.4415 107.727 23.8196 107.28 24.575C106.957 25.1146 106.796 26.0232 106.796 27.3005V35.3967Z" fill="#231F20"/>
<path d="M3.54234 54.9199C3.17705 54.9199 2.85771 54.8808 2.58485 54.8034C2.31144 54.7258 2.08191 54.6153 1.89606 54.4718C1.71022 54.3287 1.56788 54.1551 1.4694 53.9527C1.37041 53.7495 1.31285 53.5212 1.29639 53.267H1.68629C1.72582 53.5117 1.79984 53.7141 1.90837 53.8757C2.01707 54.0373 2.15107 54.1659 2.31091 54.262C2.47024 54.3577 2.65194 54.4246 2.85598 54.4645C3.06003 54.5041 3.27743 54.5241 3.50748 54.5241C3.74795 54.5241 3.9643 54.498 4.15674 54.4469C4.34899 54.396 4.51369 54.3222 4.65031 54.2248C4.78657 54.1275 4.89128 54.0104 4.96374 53.8733C5.03604 53.7364 5.07228 53.5826 5.07228 53.4107C5.07228 53.2292 5.04072 53.0767 4.97849 52.9529C4.91573 52.8298 4.81067 52.7217 4.66262 52.6289C4.5144 52.5372 4.31936 52.4543 4.07752 52.3816C3.83567 52.3095 3.5354 52.2349 3.17705 52.1592C2.88094 52.093 2.62679 52.0174 2.41424 51.9315C2.20204 51.8456 2.02695 51.7458 1.88861 51.6323C1.75043 51.5188 1.64849 51.3883 1.58261 51.2412C1.51691 51.0944 1.48397 50.9239 1.48397 50.7293C1.48397 50.5183 1.52835 50.3254 1.61746 50.1507C1.70605 49.9759 1.83192 49.8258 1.99488 49.7001C2.15767 49.5751 2.35339 49.4778 2.58206 49.4087C2.81074 49.339 3.06333 49.3047 3.33967 49.3047C3.61636 49.3047 3.86947 49.3365 4.10005 49.4009C4.33027 49.4651 4.5319 49.5583 4.70457 49.6803C4.87707 49.8028 5.01715 49.9511 5.12412 50.126C5.23074 50.3008 5.29904 50.4985 5.32885 50.7196H4.94868C4.91244 50.5741 4.8535 50.4391 4.77097 50.3135C4.68897 50.1886 4.58287 50.0803 4.45284 49.9896C4.32265 49.899 4.168 49.828 3.98892 49.7769C3.80932 49.7258 3.60457 49.7001 3.37452 49.7001C2.89083 49.7001 2.5245 49.7895 2.27608 49.9673C2.02764 50.1453 1.90351 50.3898 1.90351 50.6998C1.90351 50.8416 1.92656 50.9654 1.97251 51.0707C2.01862 51.1763 2.09681 51.2711 2.20707 51.3553C2.31717 51.4394 2.46279 51.5134 2.64379 51.5777C2.82478 51.6418 3.05015 51.7025 3.31991 51.7584C3.47783 51.7914 3.64081 51.8257 3.8088 51.8623C3.97644 51.8983 4.14008 51.9416 4.29993 51.991C4.45942 52.0404 4.61164 52.1015 4.75641 52.1741C4.901 52.2463 5.02703 52.3359 5.134 52.4409C5.24062 52.5467 5.32643 52.6729 5.39057 52.8195C5.45471 52.966 5.48662 53.1404 5.48662 53.3416C5.48662 53.5723 5.43825 53.7843 5.34116 53.9772C5.24408 54.1701 5.10903 54.3365 4.93653 54.477C4.76386 54.617 4.5579 54.7258 4.31935 54.8034C4.08081 54.8808 3.82197 54.9199 3.54234 54.9199Z" fill="#231F20"/>
<path d="M11.8134 54.8209H11.4134V52.1244H8.08205V54.8209H7.68713V49.4033H8.08205V51.7284H11.4134V49.4033H11.8134V54.8209Z" fill="#231F20"/>
<path d="M17.2613 52.7676L16.0075 49.7545L14.8182 52.7676H17.2613ZM18.5101 54.8208H18.0363L17.3749 53.0789H14.7147C14.6193 53.3527 14.5155 53.6424 14.4037 53.9475C14.2919 54.2523 14.185 54.5437 14.083 54.8208H13.6633C13.8412 54.3526 14.0161 53.8937 14.1891 53.4455C14.3618 52.9966 14.5337 52.5508 14.7048 52.107C14.8757 51.6635 15.0476 51.2176 15.2206 50.7687C15.3933 50.32 15.5686 49.8633 15.7463 49.3984H16.304L18.5101 54.8208Z" fill="#231F20"/>
<path d="M23.5633 54.8209H20.3795V49.4033H20.7747V54.4247H23.5633V54.8209Z" fill="#231F20"/>
<path d="M29.5538 54.8209H25.6504V49.4033H29.4207V49.7993H26.0449V51.803H29.2085V52.1989H26.0449V54.4247H29.5538V54.8209Z" fill="#231F20"/>
<path d="M35.9397 54.8209H35.4219L32.1246 49.8738V54.8209H31.7295V49.4033H32.2727L35.5453 54.3408V49.4033H35.9397V54.8209Z" fill="#231F20"/>
<path d="M42.4881 54.8209H41.9702L38.6731 49.8738V54.8209H38.278V49.4033H38.8211L42.0938 54.3408V49.4033H42.4881V54.8209Z" fill="#231F20"/>
<path d="M49.0425 49.4033L46.9296 52.4957V54.8209H46.5351V52.4957L44.4026 49.4033H44.8665L46.7325 52.0798L48.5832 49.4033H49.0425Z" fill="#231F20"/>
<path d="M58.8132 50.4767C58.8132 50.229 58.7365 50.0398 58.5836 49.9075C58.4301 49.776 58.2335 49.7099 57.9938 49.7099C57.862 49.7099 57.7476 49.7317 57.6503 49.7743C57.5533 49.8168 57.473 49.8745 57.409 49.9474C57.3446 50.02 57.2968 50.1014 57.2654 50.1924C57.2344 50.2831 57.2188 50.3772 57.2188 50.4767C57.2188 50.5589 57.2392 50.6447 57.2805 50.7337C57.3214 50.8232 57.3758 50.9121 57.4436 51.001C57.5105 51.0899 57.5849 51.1784 57.6654 51.2661C57.7463 51.3531 57.8261 51.4379 57.9044 51.5207C58.0334 51.4412 58.1522 51.3645 58.2622 51.2906C58.3727 51.2163 58.4679 51.1386 58.5488 51.0581C58.6297 50.9771 58.6939 50.8899 58.7412 50.7957C58.7891 50.7019 58.8132 50.5955 58.8132 50.4767ZM57.7913 51.9312C57.6629 52.017 57.5412 52.1148 57.4262 52.2256C57.3104 52.3361 57.2104 52.4531 57.1246 52.5771C57.0397 52.7008 56.9719 52.8269 56.9227 52.9554C56.8729 53.0842 56.8483 53.2089 56.8483 53.3309C56.8483 53.5057 56.8814 53.6676 56.9473 53.8159C57.0132 53.9643 57.1043 54.0922 57.2212 54.1996C57.338 54.3068 57.4778 54.3908 57.6407 54.4522C57.8039 54.5128 57.9837 54.5434 58.1815 54.5434C58.6908 54.5434 59.1452 54.2551 59.5432 53.6777L57.7913 51.9312ZM60.9009 54.4688L60.6294 54.7459L59.8495 53.9746C59.7211 54.1589 59.5877 54.3115 59.4498 54.4321C59.3112 54.5525 59.1693 54.6492 59.023 54.7212C58.8759 54.7939 58.7256 54.845 58.571 54.8751C58.4164 54.9044 58.26 54.9195 58.1024 54.9195C57.872 54.9195 57.6563 54.8799 57.4555 54.8005C57.2548 54.7212 57.0803 54.612 56.9323 54.4715C56.7844 54.3313 56.6673 54.1656 56.5822 53.9746C56.4965 53.7834 56.4541 53.5769 56.4541 53.3563C56.4541 52.7096 56.8239 52.1637 57.5641 51.7185C57.3176 51.451 57.1313 51.215 57.0066 51.0083C56.8814 50.8024 56.8189 50.6248 56.8189 50.4767C56.8189 50.2951 56.8495 50.1335 56.9102 49.9918C56.9712 49.8499 57.054 49.7322 57.1595 49.6378C57.2649 49.544 57.3908 49.4726 57.5371 49.4227C57.6833 49.3735 57.8404 49.3486 58.0083 49.3486C58.1798 49.3486 58.3391 49.3776 58.4871 49.4352C58.6351 49.493 58.7646 49.5723 58.8749 49.6728C58.9845 49.7735 59.0708 49.8924 59.1339 50.0313C59.1962 50.1701 59.2274 50.3187 59.2274 50.4767C59.2274 50.5919 59.2008 50.7072 59.1488 50.8232C59.0962 50.9385 59.0218 51.0515 58.9264 51.1621C58.8312 51.2727 58.7166 51.3776 58.5836 51.4786C58.4498 51.5789 58.3032 51.6704 58.1418 51.7533L59.7554 53.3509C59.7949 53.2685 59.8328 53.1747 59.8693 53.0691C59.9052 52.9633 59.9382 52.8492 59.9675 52.7253C59.9975 52.6016 60.0216 52.4729 60.0394 52.339C60.0576 52.2058 60.0682 52.071 60.0714 51.9359H60.4418C60.4315 52.5728 60.2967 53.125 60.0372 53.5935L60.9009 54.4688Z" fill="#231F20"/>
<path d="M72.0033 49.7993H68.8992V51.8324H71.5987V52.2284H68.8992V54.8209H68.5042V49.4033H72.0033V49.7993Z" fill="#231F20"/>
<path d="M74.5843 51.9808H76.4598C76.7265 51.9808 76.9549 51.961 77.1462 51.9219C77.3369 51.8825 77.4938 51.8169 77.6173 51.7261C77.7408 51.6355 77.8318 51.5177 77.8911 51.3728C77.9507 51.2274 77.9799 51.0497 77.9799 50.838C77.9799 50.4655 77.8624 50.1994 77.6274 50.0391C77.3918 49.8792 77.0408 49.7993 76.5737 49.7993H74.5843V51.9808ZM78.5277 54.8209H78.0938L77.5555 53.3814C77.5029 53.2426 77.4447 53.1123 77.3806 52.9903C77.3164 52.8681 77.2415 52.762 77.1557 52.6713C77.0701 52.5805 76.9724 52.5089 76.8621 52.4561C76.7518 52.4033 76.623 52.3767 76.4748 52.3767H74.5843V54.8209H74.1893V49.4033H76.623C76.8501 49.4033 77.0696 49.4244 77.2816 49.4652C77.4937 49.5068 77.6833 49.58 77.8494 49.6857C78.0153 49.7909 78.1478 49.9369 78.2467 50.1231C78.3455 50.3099 78.3946 50.5479 78.3946 50.838C78.3946 51.0197 78.3725 51.1889 78.328 51.3451C78.2838 51.5021 78.216 51.6419 78.1257 51.7658C78.035 51.8895 77.92 51.9952 77.7802 52.0824C77.6402 52.17 77.4763 52.2331 77.2894 52.273C77.3913 52.3522 77.4753 52.4278 77.5406 52.5005C77.6065 52.5733 77.6636 52.6507 77.7114 52.733C77.7587 52.8154 77.8011 52.906 77.8396 53.0054C77.8774 53.1045 77.9211 53.2179 77.9704 53.3464L78.5277 54.8209Z" fill="#231F20"/>
<path d="M81.3052 54.8209H80.9102V49.4033H81.3052V54.8209Z" fill="#231F20"/>
<path d="M87.7949 54.8209H83.8911V49.4033H87.6618V49.7993H84.2861V51.803H87.4497V52.1989H84.2861V54.4247H87.7949V54.8209Z" fill="#231F20"/>
<path d="M94.1803 54.8209H93.6624L90.365 49.8738V54.8209H89.9701V49.4033H90.5132L93.7859 54.3408V49.4033H94.1803V54.8209Z" fill="#231F20"/>
<path d="M100.503 52.0698C100.503 51.7135 100.467 51.3951 100.397 51.1146C100.325 50.8346 100.201 50.5959 100.025 50.4C99.8461 50.2035 99.6085 50.0546 99.3104 49.9519C99.0121 49.8498 98.636 49.7987 98.1824 49.7987H96.9536V54.4242H98.1824C98.6325 54.4242 99.0069 54.3715 99.3052 54.2662C99.6033 54.1606 99.8409 54.006 100.019 53.8036C100.196 53.6007 100.321 53.3543 100.394 53.064C100.467 52.7739 100.503 52.4423 100.503 52.0698ZM100.923 52.0698C100.923 53.9033 100.013 54.8204 98.1927 54.8204H96.5587V49.4082H98.1927C99.1041 49.4082 99.7871 49.6282 100.241 50.0685C100.696 50.5089 100.923 51.1758 100.923 52.0698Z" fill="#231F20"/>
<path d="M105.095 54.9199C104.731 54.9199 104.412 54.8808 104.138 54.8034C103.866 54.7258 103.636 54.6153 103.45 54.4718C103.265 54.3287 103.123 54.1551 103.024 53.9527C102.925 53.7495 102.868 53.5212 102.85 53.267H103.24C103.28 53.5117 103.353 53.7141 103.462 53.8757C103.572 54.0373 103.705 54.1659 103.865 54.262C104.024 54.3577 104.206 54.4246 104.411 54.4645C104.615 54.5041 104.832 54.5241 105.061 54.5241C105.302 54.5241 105.518 54.498 105.711 54.4469C105.903 54.396 106.068 54.3222 106.203 54.2248C106.34 54.1275 106.444 54.0104 106.517 53.8733C106.59 53.7364 106.626 53.5826 106.626 53.4107C106.626 53.2292 106.595 53.0767 106.533 52.9529C106.47 52.8298 106.364 52.7217 106.217 52.6289C106.068 52.5372 105.874 52.4543 105.631 52.3816C105.39 52.3095 105.09 52.2349 104.731 52.1592C104.435 52.093 104.18 52.0174 103.969 51.9315C103.755 51.8456 103.58 51.7458 103.443 51.6323C103.305 51.5188 103.202 51.3883 103.136 51.2412C103.071 51.0944 103.038 50.9239 103.038 50.7293C103.038 50.5183 103.083 50.3254 103.171 50.1507C103.26 49.9759 103.386 49.8258 103.549 49.7001C103.712 49.5751 103.908 49.4778 104.137 49.4087C104.366 49.339 104.617 49.3047 104.894 49.3047C105.17 49.3047 105.423 49.3365 105.654 49.4009C105.884 49.4651 106.085 49.5583 106.259 49.6803C106.43 49.8028 106.571 49.9511 106.678 50.126C106.784 50.3008 106.853 50.4985 106.883 50.7196H106.503C106.467 50.5741 106.408 50.4391 106.325 50.3135C106.243 50.1886 106.137 50.0803 106.007 49.9896C105.877 49.899 105.721 49.828 105.543 49.7769C105.364 49.7258 105.158 49.7001 104.929 49.7001C104.445 49.7001 104.078 49.7895 103.83 49.9673C103.582 50.1453 103.457 50.3898 103.457 50.6998C103.457 50.8416 103.48 50.9654 103.526 51.0707C103.573 51.1763 103.651 51.2711 103.761 51.3553C103.872 51.4394 104.017 51.5134 104.197 51.5777C104.379 51.6418 104.605 51.7025 104.874 51.7584C105.031 51.7914 105.194 51.8257 105.362 51.8623C105.531 51.8983 105.694 51.9416 105.853 51.991C106.013 52.0404 106.165 52.1015 106.311 52.1741C106.455 52.2463 106.581 52.3359 106.687 52.4409C106.794 52.5467 106.881 52.6729 106.945 52.8195C107.009 52.966 107.041 53.1404 107.041 53.3416C107.041 53.5723 106.992 53.7843 106.895 53.9772C106.798 54.1701 106.663 54.3365 106.491 54.477C106.318 54.617 106.113 54.7258 105.874 54.8034C105.635 54.8808 105.376 54.9199 105.095 54.9199Z" fill="#231F20"/>
</g>
<defs>
<clipPath id="clip0_807_1215">
<rect width="110" height="55" fill="white"/>
</clipPath>
</defs>
</svg>
